<svg xmlns="http://www.w3.org/2000/svg" viewBox="0 0 3625.54 3625.54"><defs><style>.cls-1{fill:#fff;}</style></defs><g id="Layer_2" data-name="Layer 2"><g id="Ñëîé_1" data-name="Ñëîé 1"><path class="cls-1" d="M1812.77,0C811.61,0,0,811.61,0,1812.77S811.61,3625.54,1812.77,3625.54s1812.77-811.6,1812.77-1812.77S2813.94,0,1812.77,0Zm0,3559.2c-964.52,0-1746.43-781.9-1746.43-1746.43S848.25,66.34,1812.77,66.34,3559.2,848.25,3559.2,1812.77,2777.3,3559.2,1812.77,3559.2Z"/><path class="cls-1" d="M2925.86,2075.9l66.57-34.05a20.65,20.65,0,0,0,9-27.79L2986,1983.94a20.65,20.65,0,0,0-27.78-9l-21.47,11,8.17-67.43a21,21,0,0,0,6.79-2.12l72.88-37.27a21.33,21.33,0,0,0,9.25-28.63l-15-29.24a21.34,21.34,0,0,0-28.63-9.25l-34.59,17.69L2970.53,1707s1.51-16,35.55-33.41L3265.21,1541s76.57-41.24,107.58-89c0,0,36.13-41.74,29.2-55.31s-61.94-8.7-61.94-8.7c-56.84-2.79-135.09,35.16-135.09,35.16l-259.14,132.54c-34,17.4-47.9,9.26-47.9,9.26l-108.19-59.78,34.59-17.69a21.33,21.33,0,0,0,9.25-28.63l-15-29.23a21.11,21.11,0,0,0-4.74-6.14,20.64,20.64,0,0,0-23.51-3.3l-.37.19-72.88,37.27-2.39,1.22a20.89,20.89,0,0,0-4,2.67l-51.08-28.22,17.09-8.74a20.65,20.65,0,0,0,9-27.79l-15.4-30.12a20.65,20.65,0,0,0-27.79-9l-62.2,31.81L2343,1258.43l-60.11,30.75,291,258.39,136.2,132.23s-317.2,160.51-349.87,177.22-89.78,59.42-89.78,59.42c-13,10.46-42.89-9.37-42.89-9.37l-170.63-90.9-35,17.9,134.81,177.27c-22.34,22.33-30.47,37.92-30.47,37.92s17.4,2.53,48.58-2.51l64.82,213.06,35-17.9,26.18-191.55s1.41-35.84,17.5-40.26c0,0,68.06-21.31,100.73-38s348.47-180,348.47-180L2795,1980l39.21,387.15,60.11-30.74Z"/><path class="cls-1" d="M2103.94,2177.59l-3.17,1.43-2.49,1.07-4.71,2c-3.07,1.27-6.07,2.48-9,3.66-6,2.37-11.79,4.62-17.62,6.81-11.65,4.38-23.19,8.48-34.74,12.44q-34.62,11.82-69.24,21.82-69.35,20.09-139.5,34.23t-141.1,22.78q-70.86,8.55-142.16,11.31A1596.43,1596.43,0,0,1,1256.25,2281q-35.18-5-70-11.59t-69.3-15c-45.93-11-91.21-24.41-135.66-39.87A1403.18,1403.18,0,0,1,726.92,2096a1486,1486,0,0,1-224.16-163.92l-12.86-11.55-6.42-5.78c-2.13-1.93-4.22-3.91-6.34-5.86l-12.63-11.76c-4.18-3.95-8.31-8-12.46-11.93-8.34-7.9-16.41-16.09-24.57-24.16-2.05-2-4.05-4.07-6.05-6.13l-6-6.16-6-6.16-3-3.08-3-3.12q-47.43-49.83-90.79-102.92a2059.26,2059.26,0,0,1-157.42-222.73l.56-.38c54.54,72.41,113.35,141.32,176.54,205.44q47.47,48,98.26,92.12l3.16,2.77,3.21,2.71,6.4,5.43,6.4,5.43c2.14,1.81,4.26,3.63,6.44,5.39,8.67,7.07,17.23,14.26,26,21.14,4.39,3.46,8.74,7,13.14,10.39l13.28,10.19c2.22,1.7,4.42,3.41,6.65,5.08l6.72,5,13.44,9.95c72.1,52.4,148.46,98.17,228.15,135.8a1312.19,1312.19,0,0,0,247.31,87.94c42.36,10.35,85.11,18.7,128.13,24.77q32.25,4.59,64.64,7.64t64.85,4.48a1454.2,1454.2,0,0,0,258.75-11.66,1599.62,1599.62,0,0,0,252.19-55c41.07-12.48,81.58-26.58,121.13-42.25,19.77-7.83,39.29-16.08,58.38-24.71,9.53-4.32,19-8.73,28.15-13.22,4.59-2.25,9.12-4.51,13.51-6.77,2.19-1.13,4.35-2.26,6.42-3.36l3-1.62,1.35-.75.65-.42Z"/></g></g></svg>