<svg class="airplane" xmlns="http://www.w3.org/2000/svg" xmlns:xlink="http://www.w3.org/1999/xlink" viewBox="0 0 293.3 249">
    <image xlink:href="7A5EBAB826750810.png" transform="matrix(.5 0 0 .5 771.676 -55.974)" overflow="visible"></image>
    <path d="M259.8 49.7c-8.3-2.6-16.3-1.4-24.1 1.9-16.5 6.9-33.1 13.7-49.6 20.8-2.4 1-4.1.9-6.3-.5-30.3-19.6-60.6-39-90.8-58.5-1.5-1-2.7-1.1-4.4-.4-6.6 2.9-13.3 5.7-20 8.6-.7.3-1.4.7-2.4 1.2 23.3 24.8 46.5 49.5 69.8 74.3-1.1.6-1.7 1-2.2 1.2-10.9 5-21.8 10-32.7 15.1-6.1 2.9-12.3 5.6-18.2 8.9-2.1 1.2-3.5 1.3-5.5 0-9.5-5.9-19-11.7-28.6-17.4-1-.6-2.7-.7-3.8-.3-5.7 2.3-11.4 4.7-17 7.2-.6.2-1.1.6-1.9 1.1.6.8 1.1 1.5 1.6 2.1 10.3 11.1 20.5 22.2 30.8 33.3 1.5 1.6 2.5 3.3 2.6 5.7.6 13.1 1.4 26.2 2.2 39.3.2 3 .4 5.9.6 9 .7-.1 1-.1 1.3-.3 6.2-2.6 12.5-5.2 18.6-8 .8-.4 1.6-1.7 1.8-2.7 2.5-11 5-22.1 7.4-33.1.4-1.7 1.1-2.6 2.7-3.1 3.3-1 6.5-2.1 9.7-3.3l44.1-17.1c.6-.2 1.2-.3 2.2-.6 1.7 34 3.4 67.7 5.1 101.8 1-.4 1.7-.5 2.4-.8 6.8-2.9 13.5-5.8 20.3-8.6 1.7-.7 2.3-1.7 2.7-3.4 6.7-34.3 13.6-68.6 20.1-102.9.9-4.9 2.9-7.3 7.4-9.2 15.7-6.5 31.3-13.4 46.8-20.1 7.9-3.4 14.4-8.4 18.1-16.4 8.1-13.9 6.3-21-10.8-24.8zM58.4 142.4c-.4.3-.9.3-1.2 0L31.7 115c-.3-.4-.3-.9 0-1.2.4-.3.9-.3 1.2 0l25.5 27.4c.4.3.4.9 0 1.2zm5.8 54.2c-.5 0-.9-.4-.9-.8l-1.4-37.5c0-.5.4-.9.8-.9.5 0 .9.4.9.8l1.4 37.5c0 .4-.3.8-.8.9zm72.9-103.5c-.4.4-1 .3-1.3 0L71.2 23.7c-.4-.4-.3-1 0-1.3.4-.4 1-.3 1.3 0l64.6 69.3c.4.5.4 1.1 0 1.4zm21.4 136.7c-.5 0-1-.4-1-.9l-3.6-94.7c0-.5.4-1 .9-1s1 .4 1 .9l3.6 94.7c0 .5-.4 1-.9 1z" style="fill:lightblue"></path>
</svg>