<svg xmlns="http://www.w3.org/2000/svg" viewBox="0 0 180.66 32.34"><defs><style>.cls-1{fill:#fff;}</style></defs><g id="Layer_2" data-name="Layer 2"><g id="Isolation_Mode" data-name="Isolation Mode"><path class="cls-1" d="M29.05.78h6.3L43.74,24,52.39.78H58.3L45.87,31.56H41.13Z"/><path class="cls-1" d="M69.17.78h4.74L87.17,31.56H55.78ZM79.33,27,71.39,7.3,63.78,27.08Z"/><path class="cls-1" d="M13.39.78h4.74L31.38,31.56H0ZM23.55,27,15.6,7.3,8,27.08Z"/><path class="cls-1" d="M90.6.78h7.26l14.91,22.87h.08V.78h5.48V31.56h-7L96.16,8h-.08v23.6H90.6Z"/><path class="cls-1" d="M123.55,16.3a17.9,17.9,0,0,1,1.21-6.72,15.25,15.25,0,0,1,3.37-5.15,15,15,0,0,1,5.13-3.28,20,20,0,0,1,13.15-.08,14.43,14.43,0,0,1,5.17,3.23A14.92,14.92,0,0,1,155,9.43a17.73,17.73,0,0,1,1.22,6.7A17.11,17.11,0,0,1,155,22.69a15,15,0,0,1-3.39,5.09,15.52,15.52,0,0,1-5.17,3.32,18.25,18.25,0,0,1-6.61,1.24,17.94,17.94,0,0,1-6.54-1.15,15.14,15.14,0,0,1-5.13-3.26,15,15,0,0,1-3.37-5.07A17.07,17.07,0,0,1,123.55,16.3Zm5.73-.35a13.4,13.4,0,0,0,.76,4.57,10.82,10.82,0,0,0,2.16,3.61,10,10,0,0,0,3.32,2.39,10.43,10.43,0,0,0,4.33.86,10.54,10.54,0,0,0,4.34-.86,10,10,0,0,0,3.35-2.39,10.8,10.8,0,0,0,2.15-3.61,13.16,13.16,0,0,0,.76-4.57,11.93,11.93,0,0,0-.76-4.3,10.7,10.7,0,0,0-2.15-3.5,9.89,9.89,0,0,0-3.35-2.35A10.87,10.87,0,0,0,139.85,5a10.75,10.75,0,0,0-4.33.84,9.87,9.87,0,0,0-3.32,2.35,10.72,10.72,0,0,0-2.16,3.5A12.15,12.15,0,0,0,129.28,16Z"/><path class="cls-1" d="M176.49,7.39a5.07,5.07,0,0,0-2.33-1.85A8.12,8.12,0,0,0,171.1,5a8,8,0,0,0-1.85.21,5.18,5.18,0,0,0-1.61.7,3.7,3.7,0,0,0-1.15,1.24,3.55,3.55,0,0,0-.43,1.8,2.82,2.82,0,0,0,1.08,2.39,10.7,10.7,0,0,0,2.7,1.44c1.07.4,2.24.8,3.52,1.17a14.72,14.72,0,0,1,3.52,1.56,8.75,8.75,0,0,1,2.69,2.66,7.82,7.82,0,0,1,1.09,4.39,9.61,9.61,0,0,1-.91,4.32,8.85,8.85,0,0,1-2.46,3.07,10.53,10.53,0,0,1-3.58,1.82,14.92,14.92,0,0,1-4.31.61,16.11,16.11,0,0,1-5.52-1,10.53,10.53,0,0,1-4.56-3.21l4.13-4a6.91,6.91,0,0,0,2.63,2.37,7.5,7.5,0,0,0,5.37.59,6.24,6.24,0,0,0,1.74-.79A4,4,0,0,0,174.44,25a3.57,3.57,0,0,0,.48-1.85,3.23,3.23,0,0,0-1.08-2.61,9.7,9.7,0,0,0-2.7-1.54c-1.07-.42-2.24-.82-3.52-1.2a14.68,14.68,0,0,1-3.52-1.54,8.47,8.47,0,0,1-2.69-2.61,7.73,7.73,0,0,1-1.09-4.37,8.22,8.22,0,0,1,1-4.13,9,9,0,0,1,2.56-2.89A11.25,11.25,0,0,1,167.49.57a15.48,15.48,0,0,1,8.89.17,10.93,10.93,0,0,1,4.11,2.43Z"/></g></g></svg>