      <svg xmlns="http://www.w3.org/2000/svg" style="max-width:31em;width:100%" viewBox="0 0 960 320"><path fill="white" class="trade-mark" d="
        M852.7 127.4v9.2h-1.1v-9.2H848v-1h8.3v1h-3.6zM869 136.6v-9l-3.7
        9h-1l-3.6-9.1v9.1h-1v-10.2h1.6l3.6 8.9 3.5-9h1.7v10.3H869z
      "></path><path fill="white" d="
      M172 180.5h-35.6v-17H171c.7 0 1.4-.7
      1.4-1.4v-7.6c0-.8-.7-1.4-1.4-1.4h-34.6v-16.5H172c.7 0 1.4-.6
      1.4-1.4v-7.5c0-.7-.7-1.4-1.4-1.4h-45.6c-.8 0-1.4.7-1.4 1.4v61.7c0 .7.6
      1.3 1.4 1.3H172c.7 0 1.4-.6
      1.4-1.3v-7.6c0-.7-.7-1.3-1.4-1.3m98.5-54.1h-30.8c-.8 0-1.4.6-1.4
      1.3v61.7c0 .7.6 1.3 1.4 1.3h8.6c.8 0 1.4-.5 1.4-1.3V168h20.8c12.2 0
      20.7-8.6 20.7-21 0-12.1-8.5-20.6-20.7-20.6m-20.8 10.2h19.5c6.6 0 10.5
      3.8 10.5 10.4 0 6.7-4 10.7-10.6 10.7h-19.4v-21zM361 126.4h-8.6c-.7
      0-1.3.6-1.3 1.3v61.7c0 .7.6 1.3 1.3 1.3h8.7c.7 0 1.4-.5
      1.4-1.3v-61.7c0-.7-.6-1.3-1.4-1.3m232.5 0h-8.7c-.7 0-1.3.6-1.3 1.3V165c0
      10.5-7 16.2-16.4 16.2-9.7
      0-16.2-5.6-16.2-16.3v-37c0-.8-.6-1.4-1.3-1.4H541c-.7 0-1.3.6-1.3
      1.3v37.4c0 17.5 12.3 26.7 27.6 26.7S595 182 595
      165v-37.4c0-.7-.7-1.3-1.4-1.3m107.1 36.9a18.5 18.5 0 0 0
      10.4-17.4c0-8.5-4.3-15.3-11.3-18a33 33 0 0 0-12-1.4h-27c-.8 0-1.5.6-1.5
      1.3v61.7c0 .7.7 1.3 1.4 1.3h8.7c.7 0 1.4-.6 1.4-1.3v-23.2H690l11.2
      23.8c.3.5.7.7 1.2.7h9.8c.5 0 1-.2 1.2-.6.3-.4.3-1
      0-1.4l-12.7-25.5zm-30-26.6h16.9c4.5 0 6.3.5 7.8 1.2 2.8 1.6 4.1 4.4 4.1
      8.4 0 6-3.5 9.8-9.5 9.8h-19.3v-19.4zm153.1 43.9h-35.6v-17h34.5c.8 0
      1.4-.7 1.4-1.4v-7.6c0-.7-.6-1.4-1.4-1.4h-34.5v-16.5h35.6c.7 0 1.3-.6
      1.3-1.4v-7.5c0-.7-.6-1.3-1.3-1.3h-45.6c-.8 0-1.4.6-1.4 1.3v61.7c0 .7.6
      1.4 1.4 1.4h45.6c.7 0 1.4-.7 1.4-1.4v-7.6c0-.7-.7-1.3-1.4-1.3M422
      158.2a32.8 32.8 0 0 0 32.8 33.6 29 29 0 0 0
      25.3-12.9c.4-.6.3-1.3-.3-1.9l-5.9-5c-.6-.4-1.3-.2-1.8.3l-1.4 1.6a21 21 0
      0 1-15.6 7.2c-12.4 0-21.5-10.2-21.5-23s9.1-22.1 21.5-22.1a21 21 0 0 1
      15.6 7.2l1.4 1.6c.5.5 1.1.7 1.8.3l5.9-5c.6-.6.7-1.3.3-1.9a29 29 0 0
      0-25.3-13 32.2 32.2 0 0 0-32.7 33z
    "></path></svg>