<svg xmlns="http://www.w3.org/2000/svg" viewBox="0 0 122.21 123.96">
  <defs>
    <style>
      .a {
        fill: #00aeef;
      }

      .b {
        fill: #fff;
      }
    </style>
  </defs>
  <g>
    <path class="a" d="M118.93,41.55c7.5,22.33,2.1,48.61-15.77,64.87C86.63,121.72,62.43,129,40.9,120.14,20,112.51,3.24,91.53.36,69.38c-2.89-26.86,11.91-51.75,35-63.51C54.54-3.94,79.15-1,96.25,11.35,106.63,19.39,114.69,30,118.93,41.55Z"/>
    <path class="b" d="M117.85,42.32c7.36,21.49,2.07,46.77-15.47,62.42-16.22,14.71-40,21.68-61.1,13.19C20.72,110.59,4.32,90.4,1.49,69.1-1.34,43.26,13.18,19.31,35.81,8c18.86-9.43,43-6.61,59.78,5.27C105.78,21,113.69,31.19,117.85,42.32Z"/>
    <path class="a" d="M64.86,10.26c-4.53,0-8.69,1.12-11,5.28-.37,2.63.58,4.91,2.83,6,5.09,1.89,8.49-6.21,14.34-5.08,16.41-1.13,32.06,12.07,38.46,26.78,2.08,7.16,5.48,13.57,4.15,22.07-.75-3.79-1.32-8.11-4.89-10.38-1.89,0-3.4-.56-5.1.94-2.26,2.08-1.5,4.91-.37,7.17,6.59,7.36,3,19.23-.57,26.78-8.87,17-26.59,24.14-44.7,24.52,3.2-1.13,8.12-1.13,10-5.47.57-2.83-1-5.09-3.2-6.42-5.29.75-9.07,5.47-14.9,5.09-14,.2-25.27-7.54-33.57-18.67-6-8.48-9.25-21.86-7.74-29.78.76,4,1.7,8.29,5.86,10.37,2.25-.38,4.52-.38,6-2.66.76-4.69-3.22-7.34-4.53-10.93-3.2-16.21,7-29.79,19.8-38.47A47.2,47.2,0,0,1,64.86,10.26Z"/>
    <path class="b" d="M57.51,32.89c.55,9.24-4.73,17.53-13,21.69.76,1.69,2.84,1.5,4,.93,7.17-1.69,4.72-11.68,12.82-10.92,1.71,1.87,1.14,3.94,0,5.83-1.11,2.84-4.89,3.4-4.14,6.8,4.14-.95,8.86-3.77,12.63-7.17-.94-7.92.76-15.08,7.37-19.43,3-1.13,7-.37,8.48,2.64,2.45,4.35,0,8.87-2.64,12.26-1.88,2.83-5.84,3.78-6.41,7.17,3.19.57,8.12-1.13,10.94,1.33a4.37,4.37,0,0,1-1.89,4.52C80.5,60.8,74.09,57.22,71.08,64c-2.83,4.73-4.15,11.31-2.27,16.79a16.84,16.84,0,0,0,6.79,6.78c3.59.77,7.74.77,10.56-1.88A12.47,12.47,0,0,0,88.81,74c-1-1.33-2.27-3.4-4.14-3.58-2.09.37-4.54.75-5.29,3.2-1.51,3.59,4.9,5.66,1.31,8.48-3.38,1-5.65-2.07-6.79-4.52-1.31-3.4,0-6.79,2.27-9.42,3-2.27,7-3.58,10.75-2.27a12.06,12.06,0,0,1,7.36,6.22c2.07,5.84.18,12.26-3.21,16.78A18.32,18.32,0,0,1,69.75,92.1c-4-2.45-6-6.6-7.72-10.37-2.84-10.37,2.65-19.6,10-26.22-5.47,1.32-10.56,5.87-15.85,9.07-1.5,9.8-1.3,20.92-10.74,27.15-4,1.69-7.73,2.63-11.88.37-3-1.5-4.34-4.71-4.9-7.73-1.13-7.54,6.78-15.09,13.58-19a34.73,34.73,0,0,0,9-4.91c-2.25,0-5.66,2.09-8.11,0-2.82-5.47-9-5.84-11.87-11.31a13.86,13.86,0,0,1,1.32-10.37c.94-.57,1.69-.57,2.26.37.37,4-1.13,7.92,3.21,9.62,1.7-4.34,2.26-9,5.08-12.82,2.27-2.46,4.72-4.72,7.56-5.85C53.54,30.06,56.55,29.68,57.51,32.89Z"/>
    <path class="a" d="M52.22,35.91c-.75,4.89-3.95,9-7.74,12.25-.73-4.52,2.64-8.67,5.85-12.25Z"/>
    <path class="a" d="M80.69,35.91c.39,3.2-2.07,6.59-4.52,9C74.47,41.56,76.74,36.85,80.69,35.91Z"/>
    <path class="a" d="M40.34,87.2a4.58,4.58,0,0,1-5.47-1.88C34.68,77,43.35,70.79,50,67.59,49,74.57,47.32,82.86,40.34,87.2Z"/>
  </g>
</svg>
