<svg xmlns="http://www.w3.org/2000/svg" viewBox="0 0 63.05 51.91">
  <defs>
    <style>
      .a {
        fill: #aca39a;
      }

      .b {
        fill: #ce0058;
      }
    </style>
  </defs>
  <g>
    <path class="a" d="M48.47,40.18H54.7A2.22,2.22,0,0,1,57,42.3v7.43a2.18,2.18,0,0,1-2.31,2.12H48.47a2.23,2.23,0,0,1-2.32-2.12V42.3A2.23,2.23,0,0,1,48.47,40.18Zm-17.7-3.24V49.26a2.48,2.48,0,0,0,2.32,2.65h6.23a2.52,2.52,0,0,0,2.32-2.65V36.94a2.47,2.47,0,0,0-2.32-2.65H33.09A2.48,2.48,0,0,0,30.77,36.94ZM15.4,31V49.39a2.4,2.4,0,0,0,2.32,2.52H24a2.43,2.43,0,0,0,2.32-2.52V31A2.39,2.39,0,0,0,24,28.46H17.72A2.39,2.39,0,0,0,15.4,31ZM0,20.31V49.46a2.37,2.37,0,0,0,2.32,2.45H8.58a2.38,2.38,0,0,0,2.32-2.45V20.31a2.39,2.39,0,0,0-2.32-2.46H2.35A2.38,2.38,0,0,0,0,20.31Z"/>
    <path class="b" d="M55.62,36.08l7-7.49a1.68,1.68,0,0,0-.07-2.39L55,19.31a1.68,1.68,0,0,0-2.52,2.19c.06.06.13.2.26.26l4.38,4.11c-15.38,1.19-29.09-2.65-40.82-11.33A55.47,55.47,0,0,1,3.14.82,1.71,1.71,0,0,0,.82.23,1.71,1.71,0,0,0,.23,2.55c.06.06.33.59.93,1.39a58,58,0,0,0,13,13.18A59.81,59.81,0,0,0,32,26.4a65.56,65.56,0,0,0,25.38,2.85l-4.24,4.57A1.69,1.69,0,0,0,53,35.94a.93.93,0,0,0,.26.27A1.68,1.68,0,0,0,55.62,36.08Z"/>
  </g>
</svg>
