<svg xmlns="http://www.w3.org/2000/svg" viewBox="0 0 110.7 106.26"><defs><style>.cls-1{fill:#aca39a;}.cls-2{fill:#ede04b;}</style></defs><g id="Layer_2" data-name="Layer 2"><g id="Icons"><path class="cls-1" d="M52.59,77.77H52l-1.22-.07-1.22-.12-1.19-.18-1.18-.24L46,76.87l-1.13-.36-1.11-.4-1.08-.46-1-.5-1-.56-1-.6-1-.65-.92-.69-.9-.74L36,71.13l-.82-.81-.78-.86-.74-.89L33,67.64l-.65-1-.61-1-.55-1-.51-1-.46-1.08-.41-1.11-.35-1.13-.3-1.15L28.87,58l-.18-1.2-.13-1.21-.07-1.86v-.63l.06-1.22.12-1.21.18-1.2.24-1.18.3-1.15L29.75,46l.4-1.1.46-1.09.51-1.05.55-1,.6-1,.65-1,.7-.93.73-.89.78-.86.82-.82.85-.78.89-.73.93-.7,1-.65,1-.6,1-.56,1-.51,1.08-.46,1.11-.4L46,30.49l1.15-.29L48.3,30l1.2-.18,1.21-.12,1.86-.08h.63l1.22.06,1.21.12,1.2.19,1.18.24,1.15.29,1.14.35,1.1.41,1.09.45,1,.51,1,.56,1,.6,1,.65.93.69.89.74.86.77L70,37l.78.86.73.89.7.92.65,1,.6,1,.56,1,.51,1.06L75,44.82l.4,1.1.36,1.14.3,1.15.24,1.18.18,1.19.13,1.22.07,1.86v.63l-.06,1.21-.12,1.22-.18,1.2-.24,1.17-.3,1.16-.35,1.13L75,62.49l-.45,1.08-.51,1.06-.55,1-.61,1-.65,1-.69.93-.74.89-.77.86-.82.81-.85.78-.9.74-.92.69-1,.65-1,.61-1,.56-1,.5-1.08.46-1.11.41-1.13.35-1.16.3-1.18.24-1.19.19-1.22.12-1.84.07ZM31.33,53.67l.07,1.67.11,1.08.16,1,.22,1,.26,1,.31,1,.36,1,.4,1,.45.93.5.9.53.88.57.84.62.82.65.79.69.75.72.72.75.69.79.65.82.61.85.57.88.53.9.49.93.45,1,.4,1,.35,1,.31,1,.26,1,.21,1,.16,1.08.11,1.6.06,1.67-.07,1.07-.11,1.06-.16,1-.21,1-.27,1-.31,1-.36,1-.4.92-.45.91-.49.87-.54.85-.57.82-.61.78-.66.76-.68.72-.73.68-.75.65-.79.61-.82.57-.85.54-.88.49-.9.44-.93.4-1,.36-1,.31-1,.26-1,.21-1,.16-1,.1-1.07.06-1.61L73.78,52l-.11-1.07-.16-1.06-.22-1-.26-1-.31-1-.36-1-.41-1L71.5,44,71,43.06l-.53-.87-.58-.85-.61-.81-.65-.79L68,39l-.72-.72-.76-.68-.79-.65-.82-.61L64,35.75l-.87-.53-.91-.49-.93-.45-.95-.4-1-.36-1-.31-1-.26-1-.21-1.06-.16-1.07-.1-1.6-.06-1.67.06-1.08.11-1.05.17-1,.21-1,.26-1,.32-1,.35-.95.41-.93.45-.9.49-.88.53-.84.58-.82.61-.79.65-.75.69-.72.72-.69.76-.64.79-.62.82-.57.85-.53.87-.49.91L33.2,45l-.41.95-.35,1-.31,1-.26,1-.21,1L31.5,51l-.11,1.07Z"/><path class="cls-1" d="M52.59,71.25h0l-1.3,0L49.5,71l-1.7-.39L46.16,70l-1.56-.7-1.47-.85-1.38-1-1.28-1.11-1.16-1.22-1.05-1.32-.91-1.43-.78-1.51-.63-1.6-.48-1.67-.31-1.73L35,53.69l.05-1.35.22-1.75.39-1.71.55-1.63.7-1.56.85-1.48,1-1.37,1.11-1.28,1.22-1.17,1.32-1,1.43-.92,1.51-.77,1.6-.64,1.67-.47,1.73-.31,2.24-.15,1.35,0,1.76.22,1.7.4,1.63.55,1.56.7,1.48.84,1.38,1,1.27,1.1,1.17,1.22,1,1.33.92,1.42.78,1.52L69.24,48l.47,1.67L70,51.41l.1.89,0,1.35,0,1.35-.22,1.76-.39,1.7L69,60.1l-.71,1.56-.84,1.47-1,1.38-1.1,1.28L64.11,67l-1.33,1-1.42.91-1.52.78-1.59.63-1.67.48-1.73.31-2.23.14ZM37.85,53.67l0,1.18.19,1.47.33,1.42.47,1.37.59,1.3.71,1.23L41,62.8l.92,1.06,1,1,1.12.87,1.19.76,1.28.65,1.34.53,1.39.39,1.45.25,1.85.12,1.17,0,1.47-.19,1.43-.33L58,67.37l1.31-.59,1.23-.71,1.15-.82,1.07-.93,1-1,.88-1.12L65.39,61,66,59.71l.52-1.34L67,57l.26-1.45.11-1.84,0-1.18L67.09,51l-.33-1.43-.47-1.36-.59-1.3L65,45.7l-.83-1.15-.93-1.07-1-1-1.12-.87-1.2-.77-1.27-.65-1.34-.52-1.4-.39-1.45-.26-1.84-.11-1.17,0-1.48.19-1.42.34L47.15,40l-1.3.6-1.23.71-1.15.82L42.4,43l-1,1-.87,1.11-.76,1.2-.65,1.27L38.62,49l-.4,1.4L38,51.83Z"/><path class="cls-1" d="M31.66,80.64a1.44,1.44,0,0,1-1-.41,1.42,1.42,0,0,1,0-2l6.71-6.71a1.43,1.43,0,0,1,2,0,1.41,1.41,0,0,1,0,2l-6.71,6.71A1.42,1.42,0,0,1,31.66,80.64Z"/><path class="cls-1" d="M27,76a1.42,1.42,0,0,1-1-2.43l6.71-6.71a1.42,1.42,0,0,1,2,2l-6.72,6.72A1.45,1.45,0,0,1,27,76Zm.64-.79Z"/><path class="cls-1" d="M10.66,106.26a1.42,1.42,0,0,1-1-.42,1.43,1.43,0,0,1,0-2l23.1-23.09a1.42,1.42,0,0,1,2,2L11.67,105.84A1.43,1.43,0,0,1,10.66,106.26Z"/><path class="cls-1" d="M1.42,97a1.42,1.42,0,0,1-1-2.43L23.51,71.5a1.43,1.43,0,0,1,2,0,1.41,1.41,0,0,1,0,2L2.43,96.61A1.45,1.45,0,0,1,1.42,97Zm.64-.79h0Z"/><path class="cls-1" d="M33.76,83.17a1.42,1.42,0,0,1-1-.42l-9.24-9.24a1.42,1.42,0,1,1,2-2l9.24,9.24a1.43,1.43,0,0,1-1,2.43Zm-.64-.79h0Z"/><path class="cls-1" d="M10.66,106.26a1.42,1.42,0,0,1-1-.42L.42,96.61a1.42,1.42,0,1,1,2-2l9.24,9.23a1.43,1.43,0,0,1-1,2.43Zm-.63-.79h0ZM2.05,95h0Z"/><path class="cls-1" d="M6,101.64a1.42,1.42,0,0,1-1-2.43l15.05-15a1.42,1.42,0,0,1,2,2l-15,15h0A1.45,1.45,0,0,1,6,101.64Zm.19-1.23h0Zm-.82-.83h0Z"/><path class="cls-2" d="M58.89,61.4A1.43,1.43,0,0,1,57.46,60V47.37a1.43,1.43,0,0,1,2.85,0V60A1.43,1.43,0,0,1,58.89,61.4Z"/><path class="cls-2" d="M52.59,61.4A1.42,1.42,0,0,1,51.17,60V47.37a1.42,1.42,0,0,1,2.84,0V60A1.43,1.43,0,0,1,52.59,61.4Z"/><path class="cls-2" d="M46.29,61.4A1.42,1.42,0,0,1,44.87,60V47.37a1.42,1.42,0,0,1,2.84,0V60A1.43,1.43,0,0,1,46.29,61.4Z"/><path class="cls-1" d="M8.49,80.29a1.43,1.43,0,0,1-1.42-1.42V14a1.43,1.43,0,0,1,2.85,0V78.87A1.43,1.43,0,0,1,8.49,80.29Z"/><path class="cls-1" d="M96.68,92.89h-63a1.42,1.42,0,1,1,0-2.84h63a1.42,1.42,0,1,1,0,2.84Zm0-.52h0Z"/><path class="cls-1" d="M96.68,15.44H8.49a1.42,1.42,0,0,1,0-2.84H96.68a1.42,1.42,0,1,1,0,2.84Zm0-.52h0Z"/><path class="cls-1" d="M96.68,92.89a1.43,1.43,0,0,1-1.42-1.42V14a1.43,1.43,0,0,1,2.85,0V91.47A1.43,1.43,0,0,1,96.68,92.89Z"/><path class="cls-1" d="M65.19,23.6H40a1.43,1.43,0,0,1,0-2.85h25.2a1.43,1.43,0,0,1,0,2.85Zm0-.53h0Z"/><path class="cls-1" d="M40,23.6a1.43,1.43,0,0,1-1.42-1.42V14a1.42,1.42,0,0,1,2.84,0v8.16A1.43,1.43,0,0,1,40,23.6Z"/><path class="cls-1" d="M65.19,23.6a1.43,1.43,0,0,1-1.43-1.42V14a1.43,1.43,0,0,1,2.85,0v8.16A1.43,1.43,0,0,1,65.19,23.6Z"/><path class="cls-1" d="M8.49,15.44a1.44,1.44,0,0,1-1-.41,1.42,1.42,0,0,1,0-2L20.09.42a1.41,1.41,0,0,1,2,0,1.43,1.43,0,0,1,0,2L9.5,15A1.45,1.45,0,0,1,8.49,15.44Zm.64-.79h0Z"/><path class="cls-1" d="M96.68,15.44a1.44,1.44,0,0,1-1-.41,1.41,1.41,0,0,1,0-2L108.28.42a1.41,1.41,0,0,1,2,0,1.37,1.37,0,0,1,.41,1,1.37,1.37,0,0,1-.41,1L97.69,15A1.45,1.45,0,0,1,96.68,15.44Z"/><path class="cls-1" d="M96.68,92.89a1.44,1.44,0,0,1-1-.41,1.42,1.42,0,0,1,0-2l12.6-12.6a1.43,1.43,0,0,1,2,0,1.41,1.41,0,0,1,.41,1,1.37,1.37,0,0,1-.41,1l-12.6,12.6A1.45,1.45,0,0,1,96.68,92.89Z"/><path class="cls-1" d="M109.28,80.29a1.43,1.43,0,0,1-1.42-1.42V1.42a1.42,1.42,0,0,1,2.84,0V78.87A1.42,1.42,0,0,1,109.28,80.29Z"/><path class="cls-1" d="M109.28,2.84H21.09a1.42,1.42,0,1,1,0-2.84h88.19a1.42,1.42,0,1,1,0,2.84Zm0-.52h0Z"/><path class="cls-1" d="M40,15.44A1.38,1.38,0,0,1,39,15a1.42,1.42,0,0,1,0-2L51.58.42a1.41,1.41,0,0,1,2,0,1.42,1.42,0,0,1,0,2L41,15A1.47,1.47,0,0,1,40,15.44Z"/><path class="cls-1" d="M65.19,15.44a1.45,1.45,0,0,1-1-.41,1.43,1.43,0,0,1,0-2L76.78.42a1.42,1.42,0,0,1,2,0,1.44,1.44,0,0,1,0,2L66.19,15A1.42,1.42,0,0,1,65.19,15.44Z"/></g></g></svg>