<?xml version="1.0" encoding="utf-8"?>
<!-- Generator: Adobe Illustrator 24.1.1, SVG Export Plug-In . SVG Version: 6.00 Build 0)  -->
<svg version="1.1" id="Layer_1" xmlns="http://www.w3.org/2000/svg" xmlns:xlink="http://www.w3.org/1999/xlink" x="0px" y="0px"
	 viewBox="0 0 32 32" style="enable-background:new 0 0 32 32;" xml:space="preserve">
<style type="text/css">
	.st0{fill:#ED6C47;}
	.st1{fill:#FF8F6B;}
	.st2{fill:#D35230;}
	.st3{fill:#FFFFFF;}
</style>
<path class="st0" d="M18.9,17.3L17,3h-0.1C9.7,3,4,8.8,4,15.9V16L18.9,17.3z"/>
<path class="st1" d="M17.1,3H17v13l6.5,2.6L30,16v-0.1C30,8.8,24.2,3,17.1,3z"/>
<path class="st2" d="M30,16v0.1C30,23.2,24.2,29,17.1,29h-0.3C9.7,29,4,23.2,4,16.1V16H30z"/>
<polygon class="st3" points="13.1,16 13.1,9.7 18.5,12.9 23.9,16 18.5,19.1 13.1,22.3 "/>
</svg>
