<?xml version="1.0" encoding="utf-8"?>
<!-- Generator: Adobe Illustrator 24.1.1, SVG Export Plug-In . SVG Version: 6.00 Build 0)  -->
<svg version="1.1" id="Layer_1" xmlns="http://www.w3.org/2000/svg" xmlns:xlink="http://www.w3.org/1999/xlink" x="0px" y="0px"
	 viewBox="0 0 130.7 113.8" style="enable-background:new 0 0 130.7 113.8;" xml:space="preserve">
<style type="text/css">
	.st0{fill:#FFFFFF;}
	.st1{fill:#41273B;stroke:#FFFFFF;stroke-width:3.311;stroke-linecap:round;stroke-miterlimit:10.0003;}
</style>
<g id="Layer_2_1_">
	<g id="Layer_1-2">
		<path class="st0" d="M56.1,59.9c-2.3,0-4.1-1.9-4.1-4.1V32c0-2.3,1.9-4.1,4.1-4.1c0.7,0,1.4,0.2,2.1,0.5l20.4,11.9
			c2,1.2,2.6,3.7,1.5,5.7c-0.4,0.6-0.9,1.1-1.5,1.5L58.2,59.3C57.6,59.7,56.9,59.9,56.1,59.9z M56.1,32v23.7l20.4-11.9L56.1,32
			L56.1,32z"/>
		<path class="st0" d="M123.8,106.2H4.3c-1.2,0-2.2-1.1-2.1-2.3c0-1.1,1-2,2.1-2.1h119.6c1.2,0,2.2,0.9,2.3,2.1
			c0,1.2-0.9,2.2-2.1,2.3C123.9,106.2,123.9,106.2,123.8,106.2z"/>
		<ellipse class="st0" cx="25.7" cy="104" rx="5.9" ry="5.9"/>
		<ellipse class="st1" cx="25.7" cy="104" rx="5.9" ry="5.9"/>
		<path class="st0" d="M115.1,87.8H13c-7.2,0-13-5.8-13-13V13C0,5.8,5.8,0,13,0h102.1c7.2,0,13,5.8,13,13v61.9
			C128,82,122.3,87.8,115.1,87.8z M13,4.1c-4.9,0-8.8,3.9-8.8,8.8v61.9c0,4.9,3.9,8.8,8.8,8.8h102.1c4.9,0,8.8-4,8.8-8.8V13
			c0-4.9-4-8.8-8.8-8.8H13z M64,76.2c-17.8,0-32.3-14.4-32.3-32.3S46.2,11.6,64,11.6s32.3,14.4,32.3,32.3
			C96.3,61.7,81.8,76.2,64,76.2z M64,15.8c-15.6,0-28.1,12.6-28.1,28.1S48.5,72.1,64,72.1s28.1-12.6,28.1-28.1
			C92.1,28.3,79.5,15.8,64,15.8z"/>
	</g>
</g>
</svg>
