<?xml version="1.0" encoding="utf-8"?>
<svg id="Layer_1" data-name="Layer 1" xmlns="http://www.w3.org/2000/svg" viewBox="0 0 165.01 141.37">
    <defs>
      <style>
        .cls-1 {
          fill: #fff;
        }
      </style>
    </defs>
    <title>Icons_webinar-01</title>
    <path class="cls-1"
      d="M69.92,81.34h-.2A13.68,13.68,0,0,1,56.21,67.58,13.7,13.7,0,0,1,69.89,54H70a13.68,13.68,0,0,1,0,27.36Zm0-23.36a9.68,9.68,0,0,0-.06,19.36h.09A9.68,9.68,0,0,0,70,58Z" />
    <path class="cls-1"
      d="M80.7,83.2H59.08A15.41,15.41,0,0,0,43.67,98.61h0v18.11A2.3,2.3,0,0,0,46,119.05h0a2.32,2.32,0,0,0,2.34-2.3v0l.08-18.6c0-4.66,3.71-9.26,8.37-9.29h6.35a2.3,2.3,0,0,1,2,1.07l2.36,3.41c.76,1.32,3.91,1.19,4.72-.13l2.07-3.28a3.06,3.06,0,0,1,2.42-1.07H83c4.65,0,8.63,5.6,8.44,8.45v19.44a2.32,2.32,0,0,0,2.32,2.32h0a2.32,2.32,0,0,0,2.34-2.3v0h0V98.62A15.42,15.42,0,0,0,80.7,83.2Z" />
    <rect class="cls-1" x="11.06" y="126.83" width="119.98" height="6.71" rx="1.44" />
    <path class="cls-1"
      d="M123.05,6.92C105,6.92,90.16,17.61,89.16,31H24.35A14.45,14.45,0,0,0,10,45.4v62.09a14.44,14.44,0,0,0,14.38,14.36H117.7A14.38,14.38,0,0,0,132,107.49V57.11c14.37-3,25-12.89,25-24.64C157,18.38,141.77,6.92,123.05,6.92Zm4.57,100.57a9.94,9.94,0,0,1-9.92,9.92H83.86a2.34,2.34,0,0,0,.42-1.33v-14.4A2.32,2.32,0,0,0,82,99.36h0a2.32,2.32,0,0,0-2.32,2.32v14.4a2.34,2.34,0,0,0,.42,1.33H59.73a2.34,2.34,0,0,0,.42-1.33v-14.4a2.32,2.32,0,0,0-2.32-2.32h0a2.32,2.32,0,0,0-2.32,2.32v14.4a2.34,2.34,0,0,0,.42,1.33H24.38a10,10,0,0,1-9.94-9.92V45.4a10,10,0,0,1,9.94-9.92h65c1.13,7.42,6.43,14,14.73,18.2-.43,2-1.41,4.82-3.64,6.09-.64.37-2.13,1.22-1.88,2.9a2.35,2.35,0,0,0,1.83,1.91,2.53,2.53,0,0,0,.55,0c3,0,12.51-3.19,16.32-7a45,45,0,0,0,5.8.37c1.55,0,3.07-.08,4.57-.23ZM132,52.64a36.75,36.75,0,0,1-4.42.75,41,41,0,0,1-4.57.25,40.84,40.84,0,0,1-6.34-.49l-1.39-.22-.78,1.17c-1,1.47-4.31,3.15-7.46,4.38a19.53,19.53,0,0,0,1.6-5.81l.19-1.59-1.47-.66C99.9,47,95,41.59,93.79,35.48a15.12,15.12,0,0,1-.31-3A13.9,13.9,0,0,1,93.56,31c1-11,13.86-19.73,29.49-19.73,16.31,0,29.57,9.5,29.57,21.17C152.62,41.9,144,49.91,132,52.64Z" />
  </svg>