<svg xmlns="http://www.w3.org/2000/svg" viewBox="0 0 1135.45 361.35">
  <defs>
    <style>
      .a {
        fill: #f09227;
      }

      .b {
        fill: #de5ba1;
      }

      .c {
        fill: #f26c4a;
      }
    </style>
  </defs>
  <title>Asset 2</title>
  <g>
    <path class="a" d="M132.4,137.84c27.91-.07,56.54,11.23,76.72,30.29l.11.11h0a113.28,113.28,0,0,1,26.41,37,120.65,120.65,0,0,1,7.1,21.73v0a.29.29,0,0,0,0,.09s0,.07,0,.1v0c.69,3.19,1.23,7.09,1.9,11.66.42,3.22.55,5.09.93,8.54,1.38,14.63,2.12,23.27,4.17,31.82a57.25,57.25,0,0,0,4.47,12.22,81.83,81.83,0,0,0,6.15,10l.25.36.29.38a64,64,0,0,0,43.41,24.6,58.74,58.74,0,0,0,7.78.51,63.51,63.51,0,0,0,43.47-17.8,62.44,62.44,0,0,0,19.77-42.54c.07-1.27.13-2.54.13-3.94,0-3.18-.24-5.23-.57-9.2v-.24l-1.87-18-.9-8.57c-.27-3.61-.5-7.87-.66-11.89a127.23,127.23,0,0,1,2.15-22.58,113.34,113.34,0,0,1,92.66-89.64c4.78-.78,7.73-1.14,10.45-1.42s5.26-.49,8.82-.9l17.79-1.85,71.2-7.41L859.3,61.54l276.15-28.72V14.45A14.46,14.46,0,0,0,1121,0h-77.5L854.94,19.6,570.18,49.21,499,56.61l-17.86,1.86-.23,0c-2.82.33-5.2.52-8.54.87s-7.36.84-12.85,1.74A155.51,155.51,0,0,0,332.23,184.33l0,.14h0a169.29,169.29,0,0,0-2.88,30.87v.82c.18,4.64.43,9.59.78,14.14l0,.31.95,9.15,1.84,17.68c.34,4,.41,5.17.4,5.39s0,.61-.08,1.65V265c-.11,4.58-2.48,9.74-6.69,13.74s-9.69,6.25-14.43,6.2a16.71,16.71,0,0,1-2.26-.15l-.37-.05-.39,0a22.22,22.22,0,0,1-14.4-7.95,39.41,39.41,0,0,1-2.82-4.49c-.66-1.38-1.08-2.29-1.85-6.7s-1.47-11.45-2.46-22.35l0-.2,0-.21c-.3-2.68-.49-5.31-1.07-9.78l0-.15,0-.26c-.63-4.18-1.25-9.1-2.45-14.64l0-.21v0a162.67,162.67,0,0,0-9.68-29.61A155.76,155.76,0,0,0,132.4,95.68c-3.18,0-6.35.1-9.53.31l-.27,0-.33,0C78.51,100.16,40,104.36,0,108.52V150.9c41.56-4.31,81-8.64,125.86-12.86C128,137.9,130.21,137.84,132.4,137.84Z"/>
    <path class="b" d="M382.33,346.92l.06-.05A110,110,0,0,0,421,269.67c.12-2.18.17-4.31.17-6.39-.16-19.84-4.08-36.34-3.91-49.5a58.17,58.17,0,0,1,1.15-12.17l0-.15,0-.24a67.94,67.94,0,0,1,29.92-43.65l.36-.23.36-.25c6.66-4.61,14.74-7.35,24.84-9.14s21.75-2.5,34.27-3.9l71-7.38L864,107.06l271.42-28.22V36.46L859.68,65.13,574.91,94.73l-71.39,7.43c-10.89,1.26-23.47,1.92-36.89,4.28-13.25,2.35-27.67,6.56-41.08,15.73a109.84,109.84,0,0,0-48.36,70.75,100.43,100.43,0,0,0-2.05,20.86c.16,19.79,4.07,36.27,3.9,49.5,0,1.4,0,2.75-.1,4.07a68,68,0,0,1-23.73,47.29l-.12.1a67.84,67.84,0,0,1-43.64,15.88,65.73,65.73,0,0,1-6.9-.36l-.21,0a67.93,67.93,0,0,1-46.16-25.88l-.26-.33-.28-.34c-5.3-6.35-8.79-14.09-11.2-23.56s-3.53-20.18-4.36-31.5c-1.32-28.77-13.06-57.31-35.28-77.72a109.76,109.76,0,0,0-74.5-29.45q-3.37,0-6.77.22l-.32,0-.3,0c-41.79,4-83.4,8.48-124.91,12.79V196.9c43-4.44,85.83-9.1,128.6-13.17,1.23-.08,2.46-.11,3.7-.11a67.77,67.77,0,0,1,45.67,18l.17.16.07.07c13.08,11.76,21,30.18,21.77,48.86v.35l0,.32c.9,12.11,2.12,25.42,5.56,39.05s9.2,27.55,19.48,40a110.13,110.13,0,0,0,37.84,30.91h97.4a107.66,107.66,0,0,0,22.21-14.59Z"/>
    <path class="c" d="M466.7,272.78A155.66,155.66,0,0,1,432,361.35H368a106.47,106.47,0,0,0,16.64-11.68l.13-.11c23.14-19.39,38.19-49.21,39.83-79.46l0-.37,0-.38c.13-1.38.2-3.3.2-5.39,0-5.59-.52-12.24-.9-16v.11l-1.85-17.8-1-9.63,0-.7c-.07-2-.09-2.58-.15-3.08l-.13-1.29,0-1.3a79.76,79.76,0,0,1,1.07-11.61l0-.24,0-.27a64,64,0,0,1,51.52-50.59c.68-.15,1.12-.22,1.62-.31.75-.13,1.41-.22,2.1-.31,1.37-.18,2.82-.34,4.36-.5,3.05-.33,6.46-.66,8.93-.93l-.28,0,18.18-1.89,71.19-7.4,284.76-29.6,271.05-28.19v42.39L868.76,152.59,584,182.19l-71.19,7.41-17.5,1.82-.19,0c-2.51.27-5.4.55-8,.82-1.79.18-3.57.39-4.46.51l-.17,0-1.32.21a21.61,21.61,0,0,0-8.16,3.13,22.45,22.45,0,0,0-9.53,13.41,39.57,39.57,0,0,0-.48,4.5c.11,1.45.15,2.66.18,3.7l.85,8.16,1.87,17.91C466.38,248.36,467,256,467,264,467,266.83,467,269.77,466.7,272.78ZM222,332.38a112.91,112.91,0,0,1-20-40.87l-.07-.28-.07-.25a73.38,73.38,0,0,1-2.11-10.31l0-.27,0-.24c-.73-4.49-1.07-7.62-1.25-9.59v-.13l-1.88-18.13v0c-.12-1.14-.28-2.71-.44-4.3s-.32-3.15-.59-4.93l-.11-.72-.12-.53h0v0c-.06-.29-.18-1.71-.69-4.23l-.07-.32-.07-.3a74,74,0,0,0-3.77-11.46l-.08-.18-.05-.11a64.15,64.15,0,0,0-58.26-37.93c-1.36,0-2.69,0-4,.13l-.33,0-.34,0C88,191.25,42.77,196.11,0,200.54v42.38c44-4.54,90.78-9.58,131.23-13.49l1,0a22,22,0,0,1,19.67,12.73,31.34,31.34,0,0,1,1.39,4.23c0,.18.07.47.12.89.09.61.21,1.46.42,2.55.06.53.17,1.47.27,2.47.15,1.44.31,3.08.49,4.69l1.81,17.5c.27,3,.74,7,1.58,12.27a116.68,116.68,0,0,0,3.22,15.6,155.15,155.15,0,0,0,27.42,55.8c.85,1.09,1.75,2.15,2.62,3.22h64.11A112.42,112.42,0,0,1,222,332.38Z"/>
  </g>
</svg>
