<?xml version="1.0" encoding="utf-8"?>
<!-- Generator: Adobe Illustrator 24.0.0, SVG Export Plug-In . SVG Version: 6.00 Build 0)  -->
<svg version="1.1" id="Layer_1" xmlns="http://www.w3.org/2000/svg" xmlns:xlink="http://www.w3.org/1999/xlink" x="0px" y="0px"
	 viewBox="0 0 1054.6 963" style="enable-background:new 0 0 1054.6 963;" xml:space="preserve">
<style type="text/css">
	.st0{fill:#D0659F;}
	.st1{fill:#5C0585;}
	.st2{fill:#F26C4A;}
</style>
<title>stripes3</title>
<path class="st0" d="M735.8,421.7l-61.1,213l0,0c-10.5,39.5-41.5,75-79.6,92.4c-12.1,5.6-24.9,9.5-38.1,11.4l-1,0.2l-1,0.2
	c-24.6,4.7-51.9-1-86.3-11.5c-34.1-10-74-24.7-122.2-24.1h0.3h0.1c-33.2,0.4-65.9,7.9-95.9,22c-53.1,24.7-97.4,68.1-120.7,124.1
	c-16.5,38.5-22.5,80.7-17.4,122.3h95.8c-5.6-28.8-2.9-59.3,8.7-85l0.3-0.7l0.2-0.4c13-32,40.3-59.3,73-74.4
	c17.9-8.4,37.3-12.9,57-13.2h0.4c26-0.7,56.7,8.9,93.4,20.2c36.1,10.7,79.5,22.9,129.7,14.1c22.1-3.3,43.5-9.7,63.7-19.2
	c62.8-29.3,112.2-84.7,131.2-153.5l0,0l60.8-211.8L946.9-11.4h-99.5L735.8,421.7z"/>
<path class="st1" d="M834.6,450l-61,212.7l-0.1,0.3c-18,67.5-70.7,127.8-135.8,157.7c-20.7,9.6-42.6,16.2-65.2,19.3h-0.3h-0.1
	c-24.1,3.5-48.2,4-70.5,0.6l-1.3-0.2l-1.1-0.1c-8.2-0.7-19.4-3.7-34-7.2l-25.5-7.3c-17-4.8-36.4-10.6-52.6-15
	c-12-3.1-24.4-4.7-36.9-4.8h-1.4c-19,0.2-37.8,4.5-55,12.6c-30,14-55.3,38.1-68.9,70.7c-11.2,25.9-14,54.7-8.1,82.3h102.3
	c-2.7-3-4.9-6.4-6.6-10.1c-5.1-10.9-5.4-24.2-0.7-34.7l0.3-0.6l0.3-0.7c2.9-7.7,11.2-16.5,21.3-21c4.8-2.3,10-3.6,15.3-3.8
	c4.6,0,9.2,0.6,13.7,1.7c14.3,3.9,33.7,9.6,51.2,14.6l27.5,7.9l1.1,0.3c11.8,2.7,27,7.2,46.1,9.4c33,4.9,65.7,3.9,97-0.6
	c31.8-4.5,62.9-13.6,92-27.2c89.6-41.7,160.4-121.3,187.2-218.1l0,0l60.9-212.4l129.1-487.5h-99.2L834.6,450z"/>
<path class="st2" d="M637.1,393.4L576,606.2v0.1c-3.1,11.7-12.2,22.1-23.5,27.3c-3.4,1.6-7.1,2.7-10.8,3.3
	c-6.3,0.9-9.7,0.7-10.5,0.5l-3.9-0.7h-0.7c-1.4-0.4-3.4-0.9-6.2-1.4l-24-6.9c-18-5.1-34.1-9.9-54.9-15.6
	c-31.5-8.5-64-12.6-96.5-12.2c-47.3,0.6-94,11.3-136.9,31.3C132.2,667,67.4,728.3,36,808.2c-8.4,21.3-36.8,83.9-30.4,163.3h99.2
	c-5-43,0.8-87,18-125.4l0.2-0.5l0.2-0.5c23-55.8,69.1-101.8,124.6-127.4c30.7-14.4,64.1-22.1,98-22.6c23.9-0.3,47.7,2.7,70.8,8.9
	c19.5,5.3,35.2,10,53.9,15.3l29.9,8.6l2.7,0.3c4.4,1.3,9,2.2,13.6,2.6c15,2.3,27.8,1.1,37.6-0.2l0.4,0h0.4
	c53.5-8.1,97.3-46.7,112-98.7l60.9-212.4L838.8-11.4h-99.9L637.1,393.4z"/>
</svg>
