<svg id="Layer_1" data-name="Layer 1" xmlns="http://www.w3.org/2000/svg" viewBox="0 0 1206.67 1172.4"><defs><style>.cls-1{fill:#fff;}</style></defs><title>swirl white layout</title><path class="cls-1" d="M808.84,538.71l-61.12,213,0,0c-10.51,39.47-41.51,74.95-79.62,92.43A135,135,0,0,1,630,855.5l-1,.15-1,.18c-24.58,4.71-51.87-1-86.33-11.5-34.12-10-74-24.7-122.24-24.11l.28,0h.11a233.81,233.81,0,0,0-95.94,22c-53.1,24.68-97.42,68.09-120.67,124.13a236.3,236.3,0,0,0-17.4,122.26h95.76c-5.63-28.78-2.9-59.26,8.66-85l.29-.69.17-.41c13-32,40.27-59.31,73-74.37a139.22,139.22,0,0,1,57-13.2h.4c26-.72,56.7,8.9,93.41,20.17,36.11,10.66,79.54,22.9,129.68,14.08A230.3,230.3,0,0,0,707.89,930c62.82-29.27,112.24-84.72,131.18-153.45h0l60.76-211.77,120.08-459.2H920.38Z"/><path class="cls-1" d="M907.62,567.05l-61,212.71-.11.35c-18,67.51-70.71,127.75-135.75,157.65a229.93,229.93,0,0,1-65.19,19.33l-.27,0h-.13c-24.1,3.54-48.16,4-70.51.56l-1.3-.21-1.14-.1c-8.23-.74-19.42-3.69-34-7.19l-25.54-7.34c-17-4.8-36.4-10.56-52.57-15A154.45,154.45,0,0,0,423.25,923h-1.42a133.6,133.6,0,0,0-55.05,12.58c-30,14-55.32,38.08-68.91,70.7a136.52,136.52,0,0,0-8.11,82.32H392.11a40.61,40.61,0,0,1-6.64-10.11c-5.11-10.89-5.38-24.24-.7-34.72l.27-.61.26-.65c2.89-7.7,11.19-16.52,21.26-21.05a39.87,39.87,0,0,1,15.31-3.81,60.07,60.07,0,0,1,13.67,1.68c14.33,3.9,33.68,9.62,51.19,14.59l27.55,7.9,1.13.28c11.82,2.67,27,7.24,46.09,9.37,33,4.89,65.72,3.94,97-.58a324.26,324.26,0,0,0,92-27.2c89.63-41.74,160.43-121.31,187.15-218.1h0l60.93-212.4,129.06-487.53h-99.23Z"/><path class="cls-1" d="M710.07,510.38,649,723.17l0,.1c-3.11,11.74-12.17,22.09-23.48,27.28a41.71,41.71,0,0,1-10.78,3.34c-6.32.86-9.72.65-10.5.46l-3.9-.72h-.73c-1.36-.36-3.44-.91-6.24-1.43l-24-6.89c-18-5.09-34.13-9.92-54.89-15.6a358.15,358.15,0,0,0-96.55-12.24A334.1,334.1,0,0,0,281,748.8C205.24,784,140.43,845.26,109,925.21c-8.39,21.33-36.8,83.91-30.43,163.34h99.17c-5-43,.79-87,18-125.36l.24-.54.22-.52c23-55.77,69.13-101.84,124.58-127.44a239.15,239.15,0,0,1,98-22.59,263.79,263.79,0,0,1,70.83,8.9c19.52,5.34,35.2,10,53.86,15.32l29.94,8.59,2.74.35a65.77,65.77,0,0,0,13.61,2.61c15,2.33,27.78,1.06,37.59-.18l.42-.05.4,0a137.82,137.82,0,0,0,112-98.73l60.94-212.39L911.84,105.61H811.92Z"/></svg>