<svg xmlns="http://www.w3.org/2000/svg" viewBox="0 0 793.54 95.14"><defs><style>.cls-1{fill:none;stroke:#5a435a;stroke-miterlimit:10;}</style></defs><g id="Layer_2" data-name="Layer 2"><g id="Layer_1-2" data-name="Layer 1"><path class="cls-1" d="M.37,42.87h487.4a21.75,21.75,0,0,1,21.75,21.75h0a21.74,21.74,0,0,0,21.74,21.75H793.54"/><path class="cls-1" d="M0,94.64H408.61a21.75,21.75,0,0,0,21.75-21.75v-29A21.74,21.74,0,0,1,452.1,22.13h99.1"/><path class="cls-1" d="M551.2,22.13h58.19a21.75,21.75,0,0,1,21.75,21.75h0a21.74,21.74,0,0,0,21.75,21.74H793.54"/><path class="cls-1" d="M253.8,73H449.25A21.75,21.75,0,0,0,471,51.26v-29A21.74,21.74,0,0,1,492.75.5H792.27"/><path class="cls-1" d="M0,9.51H69.65c12,0,21.75,8.73,21.75,20.75v22c0,12,9.73,20.74,21.74,20.74H253.8"/></g></g></svg>