<svg xmlns="http://www.w3.org/2000/svg" viewBox="0 0 793.54 101.67"><defs><style>.cls-1{fill:none;stroke:#5a435a;stroke-miterlimit:10;}</style></defs><g id="Layer_2" data-name="Layer 2"><g id="Layer_1-2" data-name="Layer 1"><path class="cls-1" d="M.37,37h487.4a21.75,21.75,0,0,1,21.75,21.75h0a21.74,21.74,0,0,0,21.74,21.74H793.54"/><path class="cls-1" d="M0,55H408.61a21.75,21.75,0,0,0,21.75-21.75v-11A21.74,21.74,0,0,1,452.1.5h99.1"/><path class="cls-1" d="M551.2.5h58.19a21.75,21.75,0,0,1,21.75,21.75h0A21.75,21.75,0,0,0,652.89,44H793.54"/><path class="cls-1" d="M792.37,101.17H439.81a21.75,21.75,0,0,1-21.75-21.75v-48A21.74,21.74,0,0,0,396.32,9.65H1.14"/></g></g></svg>