<svg xmlns="http://www.w3.org/2000/svg" viewBox="0 0 793.57 124.54"><defs><style>.cls-1{fill:none;stroke:#5a435a;stroke-miterlimit:10;}</style></defs><g id="Layer_2" data-name="Layer 2"><g id="Layer_1-2" data-name="Layer 1"><path class="cls-1" d="M793.54,124H384.94a21.74,21.74,0,0,1-21.75-21.75v-29a21.75,21.75,0,0,0-21.75-21.74h-99.1"/><path class="cls-1" d="M242.34,51.53H184.15A21.75,21.75,0,0,0,162.4,73.28h0A21.74,21.74,0,0,1,140.66,95H0"/><path class="cls-1" d="M253.8,73H449.25A21.75,21.75,0,0,0,471,51.26v-29A21.74,21.74,0,0,1,492.75.5H792.27"/><path class="cls-1" d="M0,9.51H69.65c12,0,21.75,8.73,21.75,20.75v22c0,12,9.73,20.74,21.74,20.74H253.8"/><path class="cls-1" d="M520.81,97.94h91.75a21.75,21.75,0,0,0,21.75-21.75v-17a21.74,21.74,0,0,1,21.75-21.74H793.57"/><path class="cls-1" d="M520.81,97.94H343.38a21.75,21.75,0,0,1-21.75-21.75v-29a21.74,21.74,0,0,0-21.74-21.74H.37"/></g></g></svg>