<svg xmlns="http://www.w3.org/2000/svg" viewBox="0 0 45.51 74.63">
  <defs>
    <style>
      .a {
        fill: #00aeef;
      }
    </style>
  </defs>
  <path class="a" d="M45.51,48.91c0,11.56-8.87,16.69-18.15,18v6.27a1.37,1.37,0,0,1-1.46,1.46H18.57a1.32,1.32,0,0,1-1.46-1.46V66.82C11.16,66,6.12,63.56.58,59.17a1.37,1.37,0,0,1-.24-2L5.88,49.4a1.23,1.23,0,0,1,2-.32c4.88,3.42,10.09,5.53,15.38,5.61,4.48,0,8.63-1.87,8.63-5.61s-4.4-4.81-10.5-6.19C12.63,40.78.91,37.19.91,24.33c0-10.17,6.76-15.46,16.2-16.92V1.47A1.33,1.33,0,0,1,18.57,0H25.9a1.37,1.37,0,0,1,1.46,1.47V7.08a35.24,35.24,0,0,1,15.79,6.19,1.37,1.37,0,0,1,.41,2L38.35,23a1.33,1.33,0,0,1-2,.41,26.32,26.32,0,0,0-14-4.15c-4.88,0-7.81,1.95-7.81,5.45s4,4.56,10,6C34.77,33.21,45.51,36,45.51,48.91Z"/>
</svg>
