<?xml version="1.0" encoding="utf-8"?>
<!-- Generator: Adobe Illustrator 23.0.2, SVG Export Plug-In . SVG Version: 6.00 Build 0)  -->
<svg version="1.1" id="Layer_1" xmlns="http://www.w3.org/2000/svg" xmlns:xlink="http://www.w3.org/1999/xlink" x="0px" y="0px"
	 viewBox="0 0 84 85" style="enable-background:new 0 0 84 85;" xml:space="preserve">
<style type="text/css">
	.st0{fill:#FFFFFF;}
</style>
<g>
	<path class="st0" d="M42,3c22.7,0.5,39.6,18.9,39.2,40.3c-0.4,22.6-18.8,39.5-40.2,39.1C17.6,81.9,1.3,63,1.8,42
		C2.3,19.4,20.5,2.9,42,3z M51.6,40.2C51.6,40.2,51.6,40.2,51.6,40.2c2.1,0,4.2,0,6.3,0c0.7,0,1.5,0,1.4-1.1
		c-0.5-3.5-1-6.9-1.5-10.4c-0.2-1.1-0.8-1.4-1.9-1.3c-3.6,0.2-7.2,0.4-10.8,0.5c-1.1,0-1.2,0.8-1.2,1.6c0,3.1,0,6.2,0,9.3
		c0,1.1,0.5,1.4,1.5,1.4C47.5,40.2,49.5,40.2,51.6,40.2z M32.1,58c0-0.1,0-0.2,0-0.3c1.8-0.1,3.6-0.3,5.5-0.3c1.2,0,1.5-0.5,1.5-1.6
		c-0.1-3.1-0.1-6.2,0-9.3c0-1-0.3-1.4-1.3-1.4c-4.3,0-8.5,0-12.8,0c-0.9,0-1.4,0.4-1.3,1.3c0.5,3.4,1,6.9,1.5,10.3
		c0.2,1,0.8,1.3,1.8,1.2C28.6,57.9,30.3,58,32.1,58z M31.3,40.2c2.1,0,4.2,0,6.3,0c1,0,1.4-0.4,1.4-1.4c0-3.2,0-6.4,0-9.6
		c0-0.9-0.4-1.2-1.3-1.3c-3.5-0.1-7-0.3-10.5-0.6c-1.5-0.1-2,0.5-2.2,1.8c-0.5,3.2-0.9,6.4-1.4,9.5c-0.2,1.1,0.3,1.6,1.5,1.6
		C27.2,40.2,29.2,40.2,31.3,40.2z M51.6,45.2C51.6,45.2,51.6,45.2,51.6,45.2c-2.1,0-4.2,0-6.3,0c-0.9,0-1.3,0.3-1.3,1.2
		c0,3.3,0,6.5,0.1,9.8c0,0.4,0.7,1.2,1.1,1.2c3.7,0.3,7.4,0.4,11.1,0.6c1,0.1,1.4-0.3,1.6-1.2c0.5-3.4,1.1-6.9,1.6-10.3
		c0.2-1.1-0.6-1.3-1.4-1.3C55.8,45.2,53.7,45.2,51.6,45.2z M12.8,45.2C12.8,45.2,12.8,45.2,12.8,45.2c-1.4,0-2.8,0.1-4.2,0
		c-1.5-0.1-2,0.6-1.7,2c0.7,4.1,1.9,8.1,3.8,11.8c0.5,1,1.1,1.3,2.1,1.1c2.1-0.4,4.2-0.8,6.4-1.1c1.3-0.2,1.3-0.7,1.1-1.8
		c-0.6-3.5-1.1-7-1.5-10.5c-0.1-1-0.5-1.4-1.4-1.4C15.9,45.2,14.4,45.2,12.8,45.2z M70.1,40.2C70.1,40.2,70.1,40.2,70.1,40.2
		c1.3,0,2.7,0,4,0c2,0,2.2-0.2,1.9-2.2c-0.7-4-1.9-7.9-3.9-11.6c-0.5-0.9-1-1.2-1.9-1c-2.1,0.4-4.1,0.9-6.2,1.1
		c-1.2,0.1-1.4,0.6-1.3,1.7c0.5,3.6,0.9,7.2,1.5,10.8c0.1,0.4,0.8,1,1.3,1.1C67,40.3,68.6,40.2,70.1,40.2z M12.8,40.2
		c1.4,0,2.8-0.1,4.1,0c1.4,0.1,1.8-0.5,1.9-1.8c0-1.6,0.3-3.2,0.5-4.8c0.3-1.9,0.7-3.8,0.9-5.7c0-0.4-0.4-1.1-0.8-1.2
		c-2.2-0.5-4.4-0.9-6.7-1.2c-0.5-0.1-1.5,0.2-1.7,0.6c-2.2,4-3.7,8.2-4.2,12.8c-0.1,1,0.3,1.4,1.3,1.4C9.7,40.2,11.3,40.2,12.8,40.2
		z M70.2,45.2C70.2,45.2,70.2,45.2,70.2,45.2c-1.6,0-3.1-0.1-4.7,0c-0.5,0-1.3,0.6-1.3,1c-0.6,3.7-1.1,7.4-1.5,11.2
		c0,0.4,0.4,1.2,0.7,1.3c2.3,0.5,4.6,0.9,6.9,1.2c0.5,0.1,1.3-0.2,1.5-0.6c2.3-3.9,3.6-8.2,4.2-12.7c0.2-1.1-0.2-1.6-1.3-1.5
		C73.2,45.2,71.7,45.2,70.2,45.2z M38.6,76.8c0.2-0.3,0.3-0.4,0.3-0.5c0-4.3,0.1-8.5,0-12.8c0-0.4-0.9-1.1-1.4-1.1
		c-2.9,0-5.8,0.3-8.8,0.4c-1.2,0.1-1.7,0.7-1,1.7c1.7,2.9,3.3,5.9,5.3,8.5C34.4,74.9,36.2,76.4,38.6,76.8z M38.8,8.3
		c-1,0.5-1.7,0.8-2.4,1.2c-4.4,2.8-6.8,7-8.8,11.6c-0.4,0.9,0,1.3,1,1.4c2.9,0.2,5.7,0.3,8.6,0.5c1.4,0.1,1.9-0.4,1.8-1.8
		c-0.1-3.7,0-7.4,0-11.1C39,9.6,38.9,9.1,38.8,8.3z M44,8.4c0,4.8,0,9.3,0.1,13.7c0,0.3,0.7,0.8,1.1,0.8c3-0.1,6.1-0.3,9.1-0.4
		c1.2-0.1,1.5-0.8,0.9-1.7c-1.5-2.7-2.9-5.5-4.7-7.9C49,10.9,47,9.2,44,8.4z M44.1,77c0.7-0.3,1.2-0.4,1.7-0.7
		c4.8-2.7,7.4-7.2,9.5-12c0.4-0.9-0.2-1.3-1.1-1.4c-2.9-0.2-5.8-0.3-8.6-0.5c-1.4-0.1-1.7,0.4-1.7,1.7c0.1,3.7,0,7.3,0,11
		C43.9,75.7,44.1,76.2,44.1,77z M68.3,20.8c-3.6-4.3-7.4-7.3-12.2-9.4C56.1,11.8,56,11.9,56,12c1.5,3.1,3,6.1,4.6,9.1
		c0.2,0.3,0.6,0.8,0.9,0.8C63.6,21.6,65.7,21.2,68.3,20.8z M26.8,74c0-0.4,0.1-0.6,0.1-0.7c-1.5-3-3-6.1-4.6-9.1
		c-0.1-0.3-0.6-0.6-0.8-0.6c-2.1,0.3-4.2,0.6-6.7,1C18.1,68.9,22,71.9,26.8,74z M14.8,20.8c2.1,0.3,3.8,0.5,5.4,0.8
		c1.4,0.3,2-0.3,2.5-1.4c1.2-2.5,2.5-5,3.8-7.5c0.2-0.3,0.3-0.7,0.4-1C22.1,13.5,18.1,16.4,14.8,20.8z M67.8,64.7
		c-1.8-0.3-3.5-0.5-5.2-0.8c-1.3-0.3-1.8,0.2-2.4,1.4c-1.1,2.5-2.4,4.8-3.6,7.3c-0.2,0.4-0.5,0.8-0.7,1.3
		C58.7,73.7,66.7,67.6,67.8,64.7z"/>
</g>
</svg>
