<svg xmlns="http://www.w3.org/2000/svg" viewBox="0 0 124.39 102.25">
  <defs>
    <style>
      .a {
        fill: #aca39a;
      }

      .b {
        fill: #00aeef;
      }
    </style>
  </defs>
  <g>
    <path class="a" d="M62.19,69.05h-.72L60,69l-1.46-.15L57.1,68.6l-1.42-.29L54.29,68l-1.36-.43-1.33-.48-1.31-.55L49,65.89l-1.24-.67L46.6,64.5l-1.16-.78-1.12-.84L43.25,62l-1-.94-1-1-.93-1L39.41,58l-.84-1.11-.78-1.16-.73-1.19-.67-1.24L35.78,52l-.55-1.3-.49-1.33L34.31,48,34,46.64l-.3-1.42-.22-1.44-.15-1.46-.08-2.25v-.74l.08-1.47.14-1.46L33.65,35l.29-1.42.36-1.39.42-1.36.49-1.33.54-1.3.61-1.27L37,25.66l.73-1.2.78-1.16.83-1.12.89-1.07.93-1,1-1,1-.93,1.07-.89,1.12-.83,1.15-.79,1.2-.72L49,14.25l1.27-.61,1.3-.55,1.33-.49,1.36-.42,1.39-.36L57,11.53l1.44-.22,1.46-.15,2.25-.09h.75l1.46.07,1.46.15,1.44.22,1.42.28,1.39.36,1.36.42,1.33.49,1.31.55,1.26.61,1.24.66,1.19.73L79,16.4l1.12.83,1.07.89,1,.93,1,1,.94,1L85,22.13l.84,1.12.78,1.15.73,1.2L88,26.83l.61,1.27.55,1.3.49,1.33.43,1.36.36,1.39.29,1.42L91,36.33l.15,1.46L91.19,40v.75l-.08,1.46L91,43.71l-.22,1.44-.29,1.42L90.09,48l-.42,1.36-.48,1.34L88.64,52,88,53.23l-.67,1.23-.73,1.2-.78,1.15L85,57.93,84.14,59l-.94,1-1,1-1,.94-1.07.88L79,63.68l-1.15.78-1.2.73-1.23.67-1.26.61-1.3.55-1.34.49-1.36.43-1.39.36-1.41.29-1.44.22L64.46,69l-2.24.09Zm-26.35-29v.69l.07,1.36.14,1.33.2,1.31L36.52,46l.33,1.26.38,1.24.45,1.21.5,1.18.55,1.15.61,1.12L40,54.28l.72,1,.75,1,.81,1,.85.93.9.9L45,60l1,.8,1,.76,1,.71,1.09.66,1.12.61,1.15.55,1.18.5,1.21.44,1.24.39,1.26.32,1.29.26,1.31.2,1.33.14,2,.07h.69l1.37-.07,1.33-.13,1.3-.2,1.29-.27,1.26-.32L70.67,65l1.21-.44,1.18-.51,1.15-.55,1.12-.61,1.09-.66,1-.71,1-.76,1-.81.93-.85.9-.89.85-.94.8-1,.76-1,.71-1.06.66-1.08L85.68,52l.55-1.16.5-1.18.44-1.21.39-1.24L87.88,46l.26-1.29.2-1.31.13-1.32.08-2v-.69L88.47,38l-.14-1.33-.2-1.31-.26-1.29-.33-1.26-.38-1.24-.45-1.21-.5-1.18L85.66,28l-.61-1.12-.66-1.08-.71-1.05-.76-1-.81-1-.85-.94-.9-.89-.93-.85-1-.81-1-.76-1.05-.71-1.09-.66-1.12-.6L73,16l-1.18-.5-1.21-.44-1.24-.38-1.26-.33-1.29-.26-1.31-.2-1.33-.13-2-.08h-.69l-1.37.07-1.32.14-1.31.2-1.29.26L55,14.71l-1.24.39-1.21.44-1.18.5-1.15.56-1.12.61L48,17.87l-1,.71-1,.76-1,.8L44,21l-.9.9-.85.94-.8,1-.76,1L40,25.87,39.32,27l-.61,1.12-.55,1.15-.5,1.18-.44,1.21-.38,1.24-.33,1.27-.26,1.28-.2,1.31-.13,1.33Z"/>
    <path class="a" d="M62.2,63.51h-.59l-1.18-.06-1.19-.12-1.16-.18-1.15-.23-1.12-.29-1.11-.34-1.07-.39-1.06-.45-1-.49-1-.54-1-.59-.94-.63-.9-.67-.87-.72L46,57.06l-.8-.8-.76-.83-.72-.87-.67-.9-.64-.93-.59-1-.54-1-.49-1-.45-1.05L40,47.61l-.34-1.1-.29-1.12-.24-1.15-.18-1.16-.12-1.19-.07-1.82v-.6l.06-1.18.11-1.18.18-1.17.23-1.15.29-1.12.34-1.1.4-1.08.44-1.06.49-1,.54-1,.59-1,.63-.93.67-.91.72-.87.75-.83.8-.8.83-.76.87-.71.9-.68.94-.63,1-.59,1-.55,1-.49,1.05-.45,1.08-.39,1.1-.35,1.13-.29L58,17l1.17-.18,1.18-.12,1.82-.07h.6l1.18.06,1.19.12,1.16.17,1.15.24,1.12.28,1.11.34,1.08.4,1,.44,1,.49,1,.54,1,.59.94.63.9.68.87.71.84.76.79.79.76.83.72.87.67.9.64.94.59,1,.54,1,.49,1L84,31.43l.4,1.07.34,1.11L85,34.73l.24,1.14L85.46,37l.12,1.18L85.65,40v.61l0,1.18L85.47,43l-.18,1.17-.23,1.14-.29,1.13-.34,1.1L84,48.63l-.45,1-.49,1-.54,1-.59,1-.63.94-.67.9-.72.87-.75.84-.8.79-.83.76-.87.72-.9.68-.93.63-1,.59-1,.54-1,.5-1,.44-1.08.4-1.1.34-1.13.29-1.14.24-1.17.18L64,63.44l-1.81.07ZM41.38,40.06l.06,1.62.11,1,.16,1,.2,1,.26,1,.31,1,.35,1,.39.94.44.9.48.89.53.86.56.83.6.8.64.77.67.74.71.7.74.67.77.64.8.6.83.56.86.52.89.48.91.44.93.39,1,.35,1,.3,1,.26,1,.21,1,.15,1,.11,1.58.06,1.63-.07,1.05-.1,1-.16,1-.21,1-.26,1-.3,1-.35.93-.4.91-.44.89-.48.85-.52.83-.57.8-.6.78-.63.73-.68.71-.7.67-.74.64-.78.6-.8.56-.83.52-.86.48-.88.44-.91.39-.94.35-1,.3-1,.26-1,.2-1,.16-1,.11-1L83,40.06,83,38.43l-.11-1-.15-1-.21-1-.26-1-.31-1-.35-1-.39-.93-.44-.91-.48-.88-.53-.86L79.16,28l-.6-.8-.64-.77-.67-.74L76.54,25l-.74-.67L75,23.67l-.8-.6-.83-.56L72.54,22l-.89-.49-.91-.43-.93-.4-1-.34-1-.31-1-.25-1-.21-1-.16-1-.1-1.58-.06-1.63.06-1,.11-1,.16-1,.21-1,.25-1,.31-1,.35-.93.4-.91.44-.89.48-.85.52-.83.56-.8.6-.77.64-.74.67-.71.71-.67.74-.64.77-.6.8-.56.84-.52.85-.48.89-.43.91-.4.93-.35,1-.3,1-.26,1-.2,1-.16,1-.1,1Z"/>
    <path class="a" d="M86.84,71.56a1.3,1.3,0,0,1-.93-.39l-8-8a1.32,1.32,0,0,1,1.86-1.87l8,8.05h0a1.3,1.3,0,0,1,0,1.86A1.29,1.29,0,0,1,86.84,71.56Z"/>
    <path class="a" d="M92.38,66a1.36,1.36,0,0,1-.94-.38l-8-8a1.32,1.32,0,0,1,0-1.86,1.3,1.3,0,0,1,1.86,0l8,8h0a1.33,1.33,0,0,1,0,1.87A1.35,1.35,0,0,1,92.38,66Z"/>
    <path class="a" d="M112,102.25a1.3,1.3,0,0,1-.93-.38L83.4,74.2h0a1.32,1.32,0,0,1,0-1.87,1.34,1.34,0,0,1,1.86,0L112.94,100a1.32,1.32,0,0,1-.94,2.25Z"/>
    <path class="a" d="M123.07,91.18a1.3,1.3,0,0,1-.93-.38L94.47,63.13h0a1.32,1.32,0,0,1,0-1.87,1.34,1.34,0,0,1,1.86,0L124,88.93a1.34,1.34,0,0,1,0,1.87A1.31,1.31,0,0,1,123.07,91.18Z"/>
    <path class="a" d="M84.33,74.58a1.35,1.35,0,0,1-.93-.38,1.33,1.33,0,0,1,0-1.87L94.47,61.26a1.32,1.32,0,1,1,1.86,1.87L85.26,74.2A1.32,1.32,0,0,1,84.33,74.58Z"/>
    <path class="a" d="M112,102.25a1.32,1.32,0,0,1-.93-2.25l11.07-11.07A1.32,1.32,0,0,1,124,90.8l-11.07,11.07A1.31,1.31,0,0,1,112,102.25Z"/>
    <path class="a" d="M117.54,96.72a1.29,1.29,0,0,1-.93-.39L94.47,74.2a1.32,1.32,0,0,1,1.86-1.87l22.14,22.14a1.32,1.32,0,0,1-.93,2.25Zm-.61-.71h0Z"/>
    <path class="b" d="M84.92,18.65h0a1.29,1.29,0,0,1-.93-.39,1.28,1.28,0,0,1-.39-.93A1.31,1.31,0,0,1,84,16.4L94.47,5.92a1.31,1.31,0,0,1,.93-.39h0a1.32,1.32,0,0,1,.94.39,1.34,1.34,0,0,1,.38.93,1.32,1.32,0,0,1-.39.94L85.85,18.27A1.34,1.34,0,0,1,84.92,18.65Zm.61-.71ZM94.8,6.25h0Z"/>
    <g>
      <path class="b" d="M62.2,46.91h-.32l-.66-.06-.11,0-.56-.11-.11,0-.54-.16-.1,0-.52-.22-.09,0L58.7,46l-.09-.05-.46-.31-.09-.07-.42-.35a.27.27,0,0,1-.08-.07l-.39-.39-.07-.07-.35-.43-.07-.08-.31-.46a.41.41,0,0,1,0-.09l-.27-.49s0-.07,0-.1l-.22-.51,0-.11-.17-.54,0-.1-.12-.56s0-.08,0-.11l-.08-1v-.35l.06-.66s0-.07,0-.1l.11-.57,0-.1.17-.54,0-.11.22-.51,0-.1.26-.49.06-.09.31-.46.06-.08.35-.43.07-.08.39-.39.08-.07.42-.35.09-.07.46-.31.08,0,.49-.27.1,0,.52-.22.1,0,.54-.17.1,0,.57-.11.1,0,1-.07h.36l.65.07h.11l.56.12.11,0,.54.17.1,0,.52.21.09,0,.49.27.09,0,.46.31.09.06.42.35.08.07.39.39.07.08.36.43.06.08.31.46a.41.41,0,0,1,0,.09l.27.49,0,.09.22.52a.42.42,0,0,0,0,.1l.16.54,0,.11L69,39s0,.07,0,.11l.08,1v.36L69,41s0,.07,0,.11l-.11.56,0,.11-.17.54,0,.1L68.4,43l-.05.1-.26.49-.06.08-.31.47-.06.08-.35.43-.07.07-.39.39a.6.6,0,0,1-.08.08l-.42.35-.09.06-.45.31-.09.06-.49.26-.1,0-.52.22-.1,0-.54.17-.1,0-.56.12-.11,0-.94.07Zm-.66-2.69.64.05.65,0,.81-.21.73-.35.65-.49.55-.59.42-.7.29-.77.08-.41,0-.64,0-.64-.2-.81-.35-.74-.49-.65-.6-.55L64,36.26,63.26,36l-.41-.09-.64,0-.65,0-.81.21-.73.35-.65.48-.55.6-.42.69-.28.77L58,39.4,58,40l.05.65.2.81.36.74.48.65.6.54.69.42.77.29Z"/>
      <path class="b" d="M23.45,13.7h-.31l-.66-.07h-.11l-.56-.12-.11,0-.54-.17-.1,0-.52-.21L20.45,13,20,12.74l-.09-.05-.46-.31-.09-.06L18.9,12l-.08-.07-.39-.39-.07-.08L18,11l-.06-.08-.31-.46a.41.41,0,0,1-.05-.09l-.27-.49,0-.09L17,9.27l0-.1-.17-.54,0-.11L16.69,8s0-.07,0-.11l-.08-1V6.53l.06-.65s0-.07,0-.11l.11-.56,0-.11L17,4.56l0-.1.22-.52.05-.1.26-.49.06-.08.31-.47L18,2.72l.35-.43.07-.07.39-.4.08-.07.42-.35.09-.06L19.85,1,19.94,1l.48-.26.1,0L21,.44l.1,0,.54-.17.1,0,.57-.12.11,0,1-.07h.35l.66.06h.11L25.1.2l.11,0,.54.16.1,0,.52.22.09,0L27,1,27,1l.46.31.09.07.42.35a.27.27,0,0,1,.08.07l.39.39a.46.46,0,0,1,.07.07l.36.43.06.08.31.46a.41.41,0,0,1,0,.09l.27.49a.93.93,0,0,1,0,.1l.22.51,0,.1.17.55,0,.1.12.56s0,.07,0,.11l.08,1v.36l-.06.66s0,.07,0,.1l-.11.57,0,.1-.17.54,0,.1-.22.52a.31.31,0,0,1-.05.1l-.26.49-.06.09L29,10.9l-.06.08-.35.43-.07.08-.39.39L28,12l-.42.35-.09.07-.46.31-.08.05-.49.27-.1,0-.52.22-.1,0-.54.17-.1,0-.57.11-.1,0-1,.07S23.47,13.7,23.45,13.7ZM22.8,11l.64.05.65-.05.81-.21.73-.35.65-.48.55-.6.42-.69.29-.77.08-.41.05-.64-.05-.65-.2-.81-.35-.74L26.58,4,26,3.48l-.69-.42-.77-.29-.41-.08-.64,0-.65,0L22,2.89l-.73.35-.65.49-.55.59-.42.7-.28.77-.09.41-.05.64.05.64.2.81.36.74.48.65.6.54.69.43.77.28Z"/>
      <path class="b" d="M57.52,37.37a1.31,1.31,0,0,1-.85-.31L48,29.59a1.28,1.28,0,0,1-.46-.9,1.33,1.33,0,0,1,2.18-1.1l8.7,7.46a1.33,1.33,0,0,1,.15,1.86A1.35,1.35,0,0,1,57.52,37.37ZM57,36.71h0Z"/>
      <path class="b" d="M37.6,20.3a1.36,1.36,0,0,1-.86-.32l-9.51-8.15A1.32,1.32,0,0,1,28,9.51a1.34,1.34,0,0,1,1,.31L38.46,18h0a1.32,1.32,0,0,1-.76,2.31Zm.56-2h0ZM27.53,11.48Z"/>
      <path class="b" d="M66.37,37.2A1.32,1.32,0,0,1,65.43,35l8.48-8.47a1.32,1.32,0,0,1,1.87,1.86L67.3,36.82A1.33,1.33,0,0,1,66.37,37.2Z"/>
      <path class="b" d="M10.56,25.36a1.38,1.38,0,0,1-.79-.26,1.32,1.32,0,0,1-.26-1.85l9.54-12.73h0a1.33,1.33,0,0,1,1.85-.26,1.31,1.31,0,0,1,.26,1.84L11.62,24.83A1.32,1.32,0,0,1,10.56,25.36Z"/>
      <path class="b" d="M6.85,35.84H6.53l-.65-.06H5.77l-.56-.12-.11,0-.54-.16-.1,0-.52-.22-.09,0-.49-.27a.19.19,0,0,1-.09-.05l-.46-.31-.09-.07-.43-.35L2.22,34l-.39-.39-.08-.07-.35-.43-.06-.08L1,32.6,1,32.51.71,32a.31.31,0,0,1,0-.1l-.22-.51a1,1,0,0,0,0-.1l-.17-.54a.43.43,0,0,1,0-.11L.09,30.1s0-.07,0-.11L0,29v-.35L.07,28a.36.36,0,0,1,0-.1l.11-.57,0-.1.16-.54a1,1,0,0,1,0-.1l.22-.52,0-.1L1,25.49,1,25.4l.31-.46a.27.27,0,0,1,.07-.08l.35-.43.07-.08L2.2,24l.07-.07.43-.35.08-.06.46-.32.09-.05.49-.27.1,0,.51-.22.1,0,.54-.17.11,0,.56-.11.11,0,1-.07h.35l.66.07h.11l.56.12.1,0,.54.17.11,0,.51.22.1,0,.49.27.09,0,.46.31.08.06.43.36.08.06.39.39.07.08.35.43a.27.27,0,0,1,.07.08l.31.46.05.09L13,26a.36.36,0,0,1,0,.09l.22.52a.42.42,0,0,1,0,.1l.17.54,0,.11.11.56a.43.43,0,0,1,0,.11l.07,1v.36l-.07.65a.37.37,0,0,1,0,.11l-.12.56a.43.43,0,0,1,0,.11l-.17.54a.42.42,0,0,1,0,.1l-.21.52L13,32l-.26.5-.06.09-.31.46-.06.08-.35.43-.07.08-.39.39-.08.07-.43.35-.08.06-.46.31-.09.06-.49.27-.09,0-.52.22-.1,0-.54.17-.11,0L8,35.75l-.11,0-.93.07ZM6.2,33.15l.64.05.64,0L8.29,33,9,32.6l.65-.48.55-.6.42-.7.28-.77.09-.41.05-.64L11,28.36l-.21-.81-.35-.74L10,26.16l-.6-.54-.69-.43-.77-.28-.41-.09-.64-.05-.65.05L5.41,25l-.74.35L4,25.86l-.55.6-.42.69-.29.78-.08.41,0,.64,0,.64.21.81.35.74.49.65.59.54.7.42.77.29Z"/>
      <g>
        <path class="b" d="M97.85,4.12,89.92,5.25a.28.28,0,0,0-.28.28c0,.16,6.92,7.09,7.08,7.09a.28.28,0,0,0,.28-.29L98.14,4.4A.28.28,0,0,0,97.85,4.12Z"/>
        <path class="b" d="M96.72,13.7c-.56,0-.57,0-4.37-3.8s-3.8-3.81-3.8-4.37a1.36,1.36,0,0,1,1.26-1.36L97.7,3A1.37,1.37,0,0,1,99.23,4.4a.77.77,0,0,1,0,.15l-1.12,7.89A1.37,1.37,0,0,1,96.72,13.7ZM91.65,6.1c1.25,1.28,3.22,3.26,4.5,4.5l.75-5.25Z"/>
      </g>
    </g>
  </g>
</svg>
