<svg xmlns="http://www.w3.org/2000/svg" viewBox="0 0 67.27 50.62">
  <defs>
    <style>
      .a {
        fill: #aca39a;
      }

      .b {
        fill: #ce0058;
      }
    </style>
  </defs>
  <g>
    <g>
      <path class="a" d="M67.19,13.51a1.18,1.18,0,0,0-.79-1.1l-3.46-1.26L66.56,9.5a1.31,1.31,0,0,0,.71-1.18,1.18,1.18,0,0,0-.79-1.11L46.87.2a3.47,3.47,0,0,0-2.52.08l-26,12C14.64,14,7.55,14.78,1.64,13a1.33,1.33,0,0,0-1.57.79,1.27,1.27,0,0,0,.79,1.58l12.37,4.41L1.49,25.25a1.3,1.3,0,0,0-.71,1.19,1.18,1.18,0,0,0,.79,1.1L5.11,28.8,1.49,30.53a1.17,1.17,0,0,0-.71,1.18,1.18,1.18,0,0,0,.79,1.11l3.54,1.26L1.49,35.81A1.29,1.29,0,0,0,.78,37a1.17,1.17,0,0,0,.79,1.1l3.54,1.27L1.49,41.09a1.29,1.29,0,0,0-.71,1.18,1.17,1.17,0,0,0,.79,1.1l19.53,7a3.35,3.35,0,0,0,1.19.23,3.47,3.47,0,0,0,1.49-.31l42.7-19.78a1.28,1.28,0,0,0,.71-1.18,1.17,1.17,0,0,0-.79-1.1L62.86,27l3.62-1.74a1.28,1.28,0,0,0,.71-1.18A1.18,1.18,0,0,0,66.4,23l-3.54-1.26L66.48,20a1.3,1.3,0,0,0,.71-1.19,1.18,1.18,0,0,0-.79-1.1l-3.54-1.26,3.62-1.73A1.17,1.17,0,0,0,67.19,13.51Zm-4.41.16L51.91,18.79V16.35l8-3.7ZM45.29,2.49a.86.86,0,0,1,.63,0h0l16.78,6L50.33,14.22,33.24,8.08Zm-15,7.09,19.3,6.85V35.81l-4.72,2.44V19.11c0-.55-.79-1-1.26-1.18L25.91,11.62ZM11.1,16.43a25.87,25.87,0,0,0,8.27-1.89l3-1.42,17.1,6.15-.71.31c-3.7,1.73-10.79,2.52-16.62.79ZM16.53,21l4.81,1.73a26.75,26.75,0,0,0,7.88,1.11,29.42,29.42,0,0,0,11-2l2.2-.79v2.44L23.23,32.19a1.21,1.21,0,0,1-1,0l-16.78-6ZM21.1,34.55a3.16,3.16,0,0,0,1.19.24,5.69,5.69,0,0,0,2-.32l18.19-8.19V28.8L23.23,37.46a1.14,1.14,0,0,1-1,0l-16.78-6L8.58,30Zm0,5.28a3.15,3.15,0,0,0,1.19.23,5.67,5.67,0,0,0,2-.31l18.19-8.19v2.52L23.23,42.74a1.14,1.14,0,0,1-1,0l-16.78-6,3.15-1.5ZM23.23,48a1.14,1.14,0,0,1-1,0L5.43,42l3.15-1.49,12.6,4.57a3.34,3.34,0,0,0,1.18.23,5.84,5.84,0,0,0,2-.31l18.12-8.2v2.53ZM62.78,29.51,51.91,34.63V32.11l7.88-3.71Zm0-5.28L51.91,29.35V26.83l7.88-3.7Zm0-5.28L51.91,24.07V21.55l7.88-3.7Z"/>
      <path class="b" d="M42.45,41.66v-20A1.73,1.73,0,0,0,41.31,20L19.07,11.92l3.31-1.52,21.37,7.42a1.71,1.71,0,0,1,1.15,1.62V40.52Z"/>
      <path class="b" d="M49.54,38.37V17.14a1,1,0,0,0-.67-.95L26.71,8.38,30,6.87l21.33,7.61a1,1,0,0,1,.67.94V37.24Z"/>
    </g>
    <polygon class="b" points="25.91 11.62 30.24 9.58 26.71 8.38 22.38 10.4 25.91 11.62"/>
  </g>
</svg>
