<svg xmlns="http://www.w3.org/2000/svg" viewBox="0 0 84.57 98.16"><defs><style>.cls-1{fill:#aca39a;stroke:#aca39a;}.cls-1,.cls-2{stroke-miterlimit:10;stroke-width:0.32px;}.cls-2{fill:#4f968c;stroke:#4f968c;}</style></defs><g id="Layer_2" data-name="Layer 2"><g id="Isolation_Mode" data-name="Isolation Mode"><path class="cls-1" d="M42.29,98H41.22l-2.14-.11L37,97.67l-2.1-.32-2-.42-2-.52-2-.62-1.94-.7L25,94.29l-1.84-.89-1.79-1-1.74-1.05-1.68-1.14L16.3,89l-1.56-1.28-1.49-1.36L11.82,85l-1.36-1.49L9.17,81.91,8,80.29,6.82,78.61,5.76,76.87l-1-1.79L3.9,73.24l-.8-1.89-.71-1.94-.62-2-.52-2L.82,63.36.5,61.27.29,59.15.16,55.89V54.8l.11-2.13.21-2.13.32-2.09.42-2.06.52-2,.61-2,.71-1.93.8-1.89.88-1.85,1-1.79,1-1.74,1.13-1.68,1.22-1.62,1.28-1.56,1.36-1.5L13.2,25.4,14.69,24l1.56-1.29,1.62-1.21,1.68-1.14,1.74-1.06,1.79-1,1.84-.89,1.89-.8L28.74,16l2-.62,2-.52,2.06-.42,2.09-.32L39,13.87l3.26-.12h1.09l2.13.11,2.13.21,2.09.32,2,.42,2,.51,2,.62,1.93.71,1.89.79,1.85.89,1.79,1L65,20.37l1.68,1.13,1.62,1.21L69.83,24l1.5,1.36,1.43,1.42,1.36,1.5,1.29,1.56,1.21,1.62,1.14,1.68,1,1.73,1,1.79.89,1.84.8,1.89.71,1.94.61,2,.53,2,.42,2.05.32,2.09.22,2.13.12,3.26v1.08l-.11,2.14-.21,2.12-.32,2.09-.42,2.06-.52,2-.61,2-.71,1.94-.8,1.89L79.82,75l-1,1.79-1.06,1.74-1.13,1.68-1.21,1.62-1.29,1.57L72.8,84.91l-1.42,1.43-1.5,1.36L68.32,89,66.7,90.21,65,91.34,63.29,92.4l-1.79,1-1.85.89-1.88.8-1.94.71-2,.62-2,.52-2,.42-2.1.32-2.12.22L42.31,98ZM2.9,55.87v1l.11,2,.2,2,.3,2,.39,1.92.49,1.88L5,68.52l.66,1.81.75,1.77.83,1.72.91,1.67,1,1.63,1.06,1.57,1.13,1.51,1.21,1.46,1.27,1.4,1.34,1.34,1.4,1.27L18,86.87,19.5,88l1.58,1.07,1.62,1,1.67.91,1.73.83,1.76.74,1.81.67,1.85.57,1.89.48,1.92.4,2,.29,2,.21,3,.11h1l2-.11,2-.2,2-.3,1.92-.39,1.89-.49,1.85-.58,1.81-.66,1.76-.75,1.72-.83L61.91,90l1.62-1L65.1,88l1.52-1.13,1.46-1.21,1.4-1.27L70.81,83l1.27-1.4,1.21-1.46,1.13-1.51,1.06-1.58,1-1.62.9-1.68.83-1.72L79,70.3l.66-1.81.57-1.85.49-1.89.39-1.92.3-2,.2-2,.11-3v-1l-.1-2-.21-2-.29-1.95L80.66,47l-.49-1.89-.57-1.85-.67-1.81-.74-1.76-.83-1.73-.91-1.67-1-1.62L74.4,33.06l-1.14-1.52-1.2-1.46-1.28-1.4-1.33-1.33-1.4-1.27-1.46-1.21-1.52-1.13L63.5,22.68l-1.63-1-1.67-.91L58.48,20l-1.77-.75-1.81-.66L53.05,18l-1.89-.48-1.92-.39-2-.3-2-.2-3-.11h-1l-2,.1-2,.2-2,.3-1.92.4L31.48,18l-1.85.58-1.8.66L26.06,20l-1.72.83-1.67.91L21,22.7l-1.57,1.06L18,24.9,16.5,26.1l-1.4,1.27-1.34,1.34-1.27,1.4-1.2,1.46-1.14,1.52L9.09,34.66l-1,1.62L7.2,38l-.83,1.72-.75,1.77L5,43.26l-.57,1.85L3.9,47l-.39,1.92-.3,1.95-.2,2Z"/><path class="cls-1" d="M42.29,91.21h-.9l-1.79-.09-1.78-.18-1.75-.27-1.73-.35-1.69-.44L31,89.36l-1.63-.59-1.58-.67-1.55-.75-1.5-.81-1.46-.88-1.41-1-1.36-1-1.31-1.08-1.26-1.14-1.2-1.2L15.59,79l-1.08-1.31-1-1.36-1-1.4-.89-1.46L10.83,72l-.74-1.55-.67-1.58-.6-1.62L8.3,65.58l-.43-1.7-.36-1.72-.27-1.75-.18-1.79L7,55.89V55l.09-1.79.18-1.78.27-1.76.35-1.72.43-1.7.52-1.66L9.39,43l.67-1.59.74-1.54.82-1.51.88-1.46.95-1.41,1-1.36,1.08-1.31,1.14-1.25,1.19-1.2,1.26-1.14,1.31-1.08,1.35-1,1.41-1,1.46-.88,1.5-.82,1.54-.75L29.3,23l1.62-.59,1.66-.52,1.7-.44L36,21.1l1.75-.27,1.79-.19,2.73-.1h.91l1.79.09,1.78.18,1.76.26,1.72.36,1.7.43,1.66.51,1.62.6,1.59.67,1.54.74,1.51.81,1.45.89,1.42.95,1.36,1,1.31,1.07,1.25,1.14,1.2,1.2L69,32.72,70.06,34l1,1.36,1,1.41.88,1.45.82,1.51.74,1.54.68,1.58.59,1.63.52,1.66.44,1.69.35,1.72.27,1.76.18,1.78.11,2.73v.92l-.09,1.79-.18,1.78-.27,1.75-.35,1.73-.43,1.69-.52,1.66-.59,1.63-.67,1.58-.74,1.55L73,73.43l-.88,1.46-.95,1.41-1,1.36L69,79l-1.14,1.26-1.2,1.2-1.25,1.14-1.31,1.08-1.36,1-1.41,1-1.46.89-1.5.81-1.54.75-1.59.67-1.62.6L52,89.86l-1.69.43-1.73.36-1.75.27L45,91.1l-2.73.11ZM9.69,55.87v.85l.09,1.68L10,60.05l.25,1.61.32,1.59.41,1.57.47,1.52.55,1.5.62,1.46.69,1.43L14,72.11l.82,1.35.88,1.3L16.66,76l1,1.21,1.06,1.15,1.1,1.11,1.16,1,1.21,1,1.26.93,1.3.88,1.34.82,1.39.75,1.42.69,1.46.61,1.5.55,1.53.48,1.56.4,1.6.32,1.61.25,1.65.16,2.49.1h.85l1.68-.09,1.64-.17L48.08,88l1.59-.32,1.56-.41,1.53-.47,1.5-.55,1.46-.62,1.42-.69,1.39-.75,1.34-.82,1.3-.88,1.26-.94,1.2-1,1.16-1.06,1.1-1.1L67,77.19l1-1.21.94-1.26.88-1.3.81-1.34.75-1.39L72,69.27l.62-1.47.54-1.49.48-1.53.4-1.57.32-1.59L74.62,60l.17-1.64.09-2.49V55l-.09-1.68-.16-1.64-.25-1.62L74,48.49l-.4-1.56-.48-1.53-.55-1.5L72,42.44,71.31,41l-.76-1.39-.81-1.34L68.86,37l-.94-1.26-1-1.2-1-1.16-1.11-1.11-1.16-1-1.21-1-1.25-.94-1.3-.88-1.35-.81-1.38-.76-1.43-.68-1.46-.62L52.72,25l-1.53-.47-1.56-.4L48,23.78l-1.62-.24-1.64-.17-2.49-.09h-.85l-1.68.08-1.65.17-1.61.25-1.6.33-1.56.4L31.81,25l-1.49.55-1.46.61-1.43.69-1.38.76-1.35.81-1.3.88-1.25.94-1.21,1-1.15,1.05L18.68,33.4l-1.05,1.16-1,1.2L15.69,37l-.87,1.3L14,39.67l-.75,1.38-.69,1.43L12,43.94l-.55,1.5L10.92,47l-.4,1.56-.32,1.59L10,51.74l-.16,1.64Z"/><path class="cls-2" d="M42.29,77.62h0l-1.62-.06-1.1-.11-1.08-.16-1.06-.22-1-.27-1-.31-1-.37-1-.41-1-.46-.92-.5-.9-.54-.87-.58L28.89,73l-.81-.66-.77-.7-.74-.74-.71-.77-.66-.8-.63-.84L24,67.62l-.54-.89-.51-.93-.46-1-.41-1-.37-1-.32-1-.27-1-.22-1.07-.16-1.08-.11-1.09-.07-1.69a1.34,1.34,0,0,1,.39-1,1.38,1.38,0,0,1,1-.41,1.25,1.25,0,0,1,1,.39,1.37,1.37,0,0,1,.42,1l0,1.5.1,1,.15.94.19.93.23.91.28.89.32.87.37.85.4.83.44.81,1,1.54.54.73L28.54,69l1.32,1.26.71.58.73.55.76.51.78.47.81.44.83.4.86.36.87.32.89.28.91.23.93.19.94.14,1,.1,1.46,0a1.36,1.36,0,0,1,1,.41,1.38,1.38,0,0,1,.39,1,1.38,1.38,0,0,1-1.37,1.35Zm0-.57h0Zm0-1.6h0Z"/><path class="cls-2" d="M42.28,77.62a1.37,1.37,0,0,1-1-.39,1.34,1.34,0,0,1-.41-1,1.35,1.35,0,0,1,1.35-1.39l1.5-.06,1-.09.94-.15.93-.19.91-.24.89-.27.87-.32.86-.37.83-.4.8-.44,1.55-1,1.43-1.13.68-.61,1.25-1.32.58-.71,1.06-1.49.92-1.59.4-.83.35-.86L60.3,62l.28-.89.23-.91.19-.93.15-.95.09-1,0-1.45,0-1.48-.1-1L61,52.49l-.2-.93-.23-.91-.28-.89L60,48.88,59.61,48l-.4-.83-.92-1.59-.51-.76-.55-.73-.58-.7L55.39,42.1l-.68-.61L54,40.9l-1.5-1-1.59-.92-.83-.4-.85-.36-.88-.31-.89-.28-.91-.23-.93-.19L44.69,37l-1-.09-1.46-.06h0a1.37,1.37,0,0,1-.94-2.35,1.47,1.47,0,0,1,1-.39l1.62.06,1.1.11,1.08.17,1.06.21,1.05.27,1,.32,1,.36,1,.41.95.46.92.5.9.54.87.59.84.62.8.67.78.7.74.73.7.77.67.81.62.83.59.87.55.9.5.92.46,1,.41,1,.37,1,.32,1,.27,1L63.69,52l.17,1.08L64,54.16,64,55.85,64,57.51l-.11,1.1-.16,1.08-.21,1.06-.27,1-.32,1-.36,1-.41,1-.46.95-.5.93-.54.9-.59.86-.62.84-.67.81-.7.77-.73.74-.77.7-.81.67-.84.63-.86.59-.9.54-.92.5-.95.46-1,.42-1,.37-1,.32-1,.27-1.06.21-1.08.17-1.1.11-1.69.07Zm0-.57Zm0-1.6h0Zm0-39.15Z"/><path class="cls-1" d="M35.49,16.49a1.38,1.38,0,0,1-1.37-1.37V8.32a1.37,1.37,0,1,1,2.74,0v6.8A1.37,1.37,0,0,1,35.49,16.49Z"/><path class="cls-1" d="M49.08,16.49a1.37,1.37,0,0,1-1.37-1.37V8.32a1.37,1.37,0,0,1,2.74,0v6.8A1.38,1.38,0,0,1,49.08,16.49Z"/><path class="cls-1" d="M49.08,9.69H35.49a1.37,1.37,0,1,1,0-2.74H49.08a1.37,1.37,0,1,1,0,2.74Zm0-.56h0Z"/><path class="cls-1" d="M42.29,9.69a1.37,1.37,0,0,1-1.37-1.37V1.53a1.37,1.37,0,1,1,2.74,0V8.32A1.37,1.37,0,0,1,42.29,9.69Z"/><path class="cls-1" d="M49.08,2.9H35.49a1.37,1.37,0,0,1,0-2.74H49.08a1.37,1.37,0,1,1,0,2.74Zm0-.57h0Z"/><rect class="cls-1" x="40.92" y="20.82" width="2.74" height="8.97" rx="1.09"/><rect class="cls-1" x="7.24" y="54.5" width="8.97" height="2.74" rx="1.09"/><rect class="cls-1" x="40.92" y="81.96" width="2.74" height="8.97" rx="1.09"/><rect class="cls-1" x="68.37" y="54.5" width="8.97" height="2.74" rx="1.09"/><path class="cls-1" d="M56.12,33.57a1.11,1.11,0,0,1-.55-.15l-.49-.28a1,1,0,0,1-.5-.66,1.07,1.07,0,0,1,.1-.82l3.4-5.89a1.08,1.08,0,0,1,1.49-.39l.49.28a1,1,0,0,1,.5.66,1.07,1.07,0,0,1-.1.82L57.06,33A1.1,1.1,0,0,1,56.12,33.57Z"/><path class="cls-1" d="M18.61,43.62a1.08,1.08,0,0,1-.54-.15l-5.88-3.39a1.15,1.15,0,0,1-.51-.66,1.14,1.14,0,0,1,.11-.83l.28-.49a1.09,1.09,0,0,1,1.49-.4l5.88,3.4a1.09,1.09,0,0,1,.51.66,1.14,1.14,0,0,1-.11.83l-.28.48A1.11,1.11,0,0,1,18.61,43.62Z"/><path class="cls-1" d="M25.55,86.51a1,1,0,0,1-.54-.14l-.49-.29a1.08,1.08,0,0,1-.4-1.48l3.4-5.88a1.08,1.08,0,0,1,1.48-.4l.49.28a1.12,1.12,0,0,1,.51.66,1.14,1.14,0,0,1-.11.83L26.49,86a1.09,1.09,0,0,1-.66.51A1.33,1.33,0,0,1,25.55,86.51Z"/><path class="cls-1" d="M71.56,74.19A1,1,0,0,1,71,74l-5.89-3.4a1,1,0,0,1-.5-.66,1.07,1.07,0,0,1,.1-.82l.29-.49a1.08,1.08,0,0,1,1.48-.4l5.88,3.4a1.06,1.06,0,0,1,.51.66,1,1,0,0,1-.11.82l-.28.49A1.09,1.09,0,0,1,71.56,74.19Z"/><path class="cls-1" d="M66,43.62a1.08,1.08,0,0,1-.94-.55l-.29-.48a1.09,1.09,0,0,1-.1-.83,1,1,0,0,1,.5-.66L71,37.7a1.08,1.08,0,0,1,1.48.4l.28.49a1.05,1.05,0,0,1,.11.83,1.11,1.11,0,0,1-.51.66L66.5,43.47A1.08,1.08,0,0,1,66,43.62Z"/><path class="cls-1" d="M28.46,33.57a1.12,1.12,0,0,1-.95-.54l-3.39-5.89a1.08,1.08,0,0,1,.4-1.48l.49-.28a1.07,1.07,0,0,1,1.48.39l3.4,5.89a1.12,1.12,0,0,1,.11.82,1.09,1.09,0,0,1-.51.66l-.49.28A1.08,1.08,0,0,1,28.46,33.57Z"/><path class="cls-1" d="M13,74.19a1.11,1.11,0,0,1-.95-.55l-.28-.49a1.12,1.12,0,0,1-.11-.82,1.09,1.09,0,0,1,.51-.66l5.88-3.4a1.09,1.09,0,0,1,1.49.4l.28.49A1.12,1.12,0,0,1,20,70a1.09,1.09,0,0,1-.51.66L13.56,74A1.08,1.08,0,0,1,13,74.19Z"/><path class="cls-1" d="M59,86.51a1.33,1.33,0,0,1-.28,0,1.12,1.12,0,0,1-.66-.51l-3.4-5.88a1.09,1.09,0,0,1-.1-.83,1.07,1.07,0,0,1,.5-.66l.49-.28a1.09,1.09,0,0,1,1.49.4l3.39,5.88a1.07,1.07,0,0,1-.39,1.48l-.49.29A1.07,1.07,0,0,1,59,86.51Z"/><circle class="cls-1" cx="42.29" cy="55.87" r="3.16"/><path class="cls-1" d="M42.29,60.12a4.25,4.25,0,1,1,4.24-4.25A4.26,4.26,0,0,1,42.29,60.12Zm0-6.32a2.07,2.07,0,1,0,2.07,2.07A2.07,2.07,0,0,0,42.29,53.8Z"/></g></g></svg>